M48
; DRILL file {KiCad 7.0.10} date Fri Jan  5 17:35:17 2024
; FORMAT={-:-/ absolute / inch / decimal}
; #@! TF.CreationDate,2024-01-05T17:35:17-06:00
; #@! TF.GenerationSoftware,Kicad,Pcbnew,7.0.10
; #@! TF.FileFunction,Plated,1,4,PTH
FMAT,2
INCH
; #@! TA.AperFunction,Plated,PTH,ViaDrill
T1C0.0157
; #@! TA.AperFunction,Plated,PTH,ComponentDrill
T2C0.0276
; #@! TA.AperFunction,Plated,PTH,ComponentDrill
T3C0.0315
; #@! TA.AperFunction,Plated,PTH,ComponentDrill
T4C0.0394
; #@! TA.AperFunction,Plated,PTH,ComponentDrill
T5C0.0472
%
G90
G05
T1
X4.9276Y-3.0752
T2
X4.9197Y-3.4772
X5.1197Y-3.4772
X5.1972Y-3.4764
X5.3972Y-3.4764
T3
X5.0647Y-2.989
X5.0728Y-3.263
X5.0728Y-3.3417
X5.1516Y-3.263
X5.1516Y-3.3417
X5.2303Y-3.263
X5.2303Y-3.3417
X5.2615Y-2.989
X5.3091Y-3.263
X5.3091Y-3.3417
T4
X4.4059Y-3.3665
X4.4059Y-3.4665
X4.5059Y-3.3665
X4.5059Y-3.4665
X4.6059Y-3.3665
X4.6059Y-3.4665
X4.7059Y-3.3665
X4.7059Y-3.4665
X4.8059Y-3.3665
X4.8059Y-3.4665
T5
X5.4996Y-2.9807
X5.4996Y-3.4807
M30
