%TF.GenerationSoftware,KiCad,Pcbnew,7.0.10*%
%TF.CreationDate,2024-01-05T17:35:28-06:00*%
%TF.ProjectId,USB-CV1,5553422d-4356-4312-9e6b-696361645f70,rev?*%
%TF.SameCoordinates,Original*%
%TF.FileFunction,Legend,Bot*%
%TF.FilePolarity,Positive*%
%FSLAX46Y46*%
G04 Gerber Fmt 4.6, Leading zero omitted, Abs format (unit mm)*
G04 Created by KiCad (PCBNEW 7.0.10) date 2024-01-05 17:35:28*
%MOMM*%
%LPD*%
G01*
G04 APERTURE LIST*
%ADD10C,0.150000*%
G04 APERTURE END LIST*
D10*
X125121792Y-75089819D02*
X125455125Y-74613628D01*
X125693220Y-75089819D02*
X125693220Y-74089819D01*
X125693220Y-74089819D02*
X125312268Y-74089819D01*
X125312268Y-74089819D02*
X125217030Y-74137438D01*
X125217030Y-74137438D02*
X125169411Y-74185057D01*
X125169411Y-74185057D02*
X125121792Y-74280295D01*
X125121792Y-74280295D02*
X125121792Y-74423152D01*
X125121792Y-74423152D02*
X125169411Y-74518390D01*
X125169411Y-74518390D02*
X125217030Y-74566009D01*
X125217030Y-74566009D02*
X125312268Y-74613628D01*
X125312268Y-74613628D02*
X125693220Y-74613628D01*
X124169411Y-75089819D02*
X124740839Y-75089819D01*
X124455125Y-75089819D02*
X124455125Y-74089819D01*
X124455125Y-74089819D02*
X124550363Y-74232676D01*
X124550363Y-74232676D02*
X124645601Y-74327914D01*
X124645601Y-74327914D02*
X124740839Y-74375533D01*
X123693220Y-75042200D02*
X123693220Y-75089819D01*
X123693220Y-75089819D02*
X123740839Y-75185057D01*
X123740839Y-75185057D02*
X123788458Y-75232676D01*
X122693221Y-75089819D02*
X123026554Y-74613628D01*
X123264649Y-75089819D02*
X123264649Y-74089819D01*
X123264649Y-74089819D02*
X122883697Y-74089819D01*
X122883697Y-74089819D02*
X122788459Y-74137438D01*
X122788459Y-74137438D02*
X122740840Y-74185057D01*
X122740840Y-74185057D02*
X122693221Y-74280295D01*
X122693221Y-74280295D02*
X122693221Y-74423152D01*
X122693221Y-74423152D02*
X122740840Y-74518390D01*
X122740840Y-74518390D02*
X122788459Y-74566009D01*
X122788459Y-74566009D02*
X122883697Y-74613628D01*
X122883697Y-74613628D02*
X123264649Y-74613628D01*
X122312268Y-74185057D02*
X122264649Y-74137438D01*
X122264649Y-74137438D02*
X122169411Y-74089819D01*
X122169411Y-74089819D02*
X121931316Y-74089819D01*
X121931316Y-74089819D02*
X121836078Y-74137438D01*
X121836078Y-74137438D02*
X121788459Y-74185057D01*
X121788459Y-74185057D02*
X121740840Y-74280295D01*
X121740840Y-74280295D02*
X121740840Y-74375533D01*
X121740840Y-74375533D02*
X121788459Y-74518390D01*
X121788459Y-74518390D02*
X122359887Y-75089819D01*
X122359887Y-75089819D02*
X121740840Y-75089819D01*
X120074173Y-74089819D02*
X120550363Y-74089819D01*
X120550363Y-74089819D02*
X120597982Y-74566009D01*
X120597982Y-74566009D02*
X120550363Y-74518390D01*
X120550363Y-74518390D02*
X120455125Y-74470771D01*
X120455125Y-74470771D02*
X120217030Y-74470771D01*
X120217030Y-74470771D02*
X120121792Y-74518390D01*
X120121792Y-74518390D02*
X120074173Y-74566009D01*
X120074173Y-74566009D02*
X120026554Y-74661247D01*
X120026554Y-74661247D02*
X120026554Y-74899342D01*
X120026554Y-74899342D02*
X120074173Y-74994580D01*
X120074173Y-74994580D02*
X120121792Y-75042200D01*
X120121792Y-75042200D02*
X120217030Y-75089819D01*
X120217030Y-75089819D02*
X120455125Y-75089819D01*
X120455125Y-75089819D02*
X120550363Y-75042200D01*
X120550363Y-75042200D02*
X120597982Y-74994580D01*
X119169411Y-74089819D02*
X119359887Y-74089819D01*
X119359887Y-74089819D02*
X119455125Y-74137438D01*
X119455125Y-74137438D02*
X119502744Y-74185057D01*
X119502744Y-74185057D02*
X119597982Y-74327914D01*
X119597982Y-74327914D02*
X119645601Y-74518390D01*
X119645601Y-74518390D02*
X119645601Y-74899342D01*
X119645601Y-74899342D02*
X119597982Y-74994580D01*
X119597982Y-74994580D02*
X119550363Y-75042200D01*
X119550363Y-75042200D02*
X119455125Y-75089819D01*
X119455125Y-75089819D02*
X119264649Y-75089819D01*
X119264649Y-75089819D02*
X119169411Y-75042200D01*
X119169411Y-75042200D02*
X119121792Y-74994580D01*
X119121792Y-74994580D02*
X119074173Y-74899342D01*
X119074173Y-74899342D02*
X119074173Y-74661247D01*
X119074173Y-74661247D02*
X119121792Y-74566009D01*
X119121792Y-74566009D02*
X119169411Y-74518390D01*
X119169411Y-74518390D02*
X119264649Y-74470771D01*
X119264649Y-74470771D02*
X119455125Y-74470771D01*
X119455125Y-74470771D02*
X119550363Y-74518390D01*
X119550363Y-74518390D02*
X119597982Y-74566009D01*
X119597982Y-74566009D02*
X119645601Y-74661247D01*
X118455125Y-74089819D02*
X118359887Y-74089819D01*
X118359887Y-74089819D02*
X118264649Y-74137438D01*
X118264649Y-74137438D02*
X118217030Y-74185057D01*
X118217030Y-74185057D02*
X118169411Y-74280295D01*
X118169411Y-74280295D02*
X118121792Y-74470771D01*
X118121792Y-74470771D02*
X118121792Y-74708866D01*
X118121792Y-74708866D02*
X118169411Y-74899342D01*
X118169411Y-74899342D02*
X118217030Y-74994580D01*
X118217030Y-74994580D02*
X118264649Y-75042200D01*
X118264649Y-75042200D02*
X118359887Y-75089819D01*
X118359887Y-75089819D02*
X118455125Y-75089819D01*
X118455125Y-75089819D02*
X118550363Y-75042200D01*
X118550363Y-75042200D02*
X118597982Y-74994580D01*
X118597982Y-74994580D02*
X118645601Y-74899342D01*
X118645601Y-74899342D02*
X118693220Y-74708866D01*
X118693220Y-74708866D02*
X118693220Y-74470771D01*
X118693220Y-74470771D02*
X118645601Y-74280295D01*
X118645601Y-74280295D02*
X118597982Y-74185057D01*
X118597982Y-74185057D02*
X118550363Y-74137438D01*
X118550363Y-74137438D02*
X118455125Y-74089819D01*
X117693220Y-75089819D02*
X117693220Y-74089819D01*
X117121792Y-75089819D02*
X117550363Y-74518390D01*
X117121792Y-74089819D02*
X117693220Y-74661247D01*
X125121792Y-76699819D02*
X125455125Y-76223628D01*
X125693220Y-76699819D02*
X125693220Y-75699819D01*
X125693220Y-75699819D02*
X125312268Y-75699819D01*
X125312268Y-75699819D02*
X125217030Y-75747438D01*
X125217030Y-75747438D02*
X125169411Y-75795057D01*
X125169411Y-75795057D02*
X125121792Y-75890295D01*
X125121792Y-75890295D02*
X125121792Y-76033152D01*
X125121792Y-76033152D02*
X125169411Y-76128390D01*
X125169411Y-76128390D02*
X125217030Y-76176009D01*
X125217030Y-76176009D02*
X125312268Y-76223628D01*
X125312268Y-76223628D02*
X125693220Y-76223628D01*
X124788458Y-75699819D02*
X124169411Y-75699819D01*
X124169411Y-75699819D02*
X124502744Y-76080771D01*
X124502744Y-76080771D02*
X124359887Y-76080771D01*
X124359887Y-76080771D02*
X124264649Y-76128390D01*
X124264649Y-76128390D02*
X124217030Y-76176009D01*
X124217030Y-76176009D02*
X124169411Y-76271247D01*
X124169411Y-76271247D02*
X124169411Y-76509342D01*
X124169411Y-76509342D02*
X124217030Y-76604580D01*
X124217030Y-76604580D02*
X124264649Y-76652200D01*
X124264649Y-76652200D02*
X124359887Y-76699819D01*
X124359887Y-76699819D02*
X124645601Y-76699819D01*
X124645601Y-76699819D02*
X124740839Y-76652200D01*
X124740839Y-76652200D02*
X124788458Y-76604580D01*
X123121791Y-75699819D02*
X122788458Y-76699819D01*
X122788458Y-76699819D02*
X122455125Y-75699819D01*
X121645601Y-75699819D02*
X122121791Y-75699819D01*
X122121791Y-75699819D02*
X122169410Y-76176009D01*
X122169410Y-76176009D02*
X122121791Y-76128390D01*
X122121791Y-76128390D02*
X122026553Y-76080771D01*
X122026553Y-76080771D02*
X121788458Y-76080771D01*
X121788458Y-76080771D02*
X121693220Y-76128390D01*
X121693220Y-76128390D02*
X121645601Y-76176009D01*
X121645601Y-76176009D02*
X121597982Y-76271247D01*
X121597982Y-76271247D02*
X121597982Y-76509342D01*
X121597982Y-76509342D02*
X121645601Y-76604580D01*
X121645601Y-76604580D02*
X121693220Y-76652200D01*
X121693220Y-76652200D02*
X121788458Y-76699819D01*
X121788458Y-76699819D02*
X122026553Y-76699819D01*
X122026553Y-76699819D02*
X122121791Y-76652200D01*
X122121791Y-76652200D02*
X122169410Y-76604580D01*
X121169410Y-76604580D02*
X121121791Y-76652200D01*
X121121791Y-76652200D02*
X121169410Y-76699819D01*
X121169410Y-76699819D02*
X121217029Y-76652200D01*
X121217029Y-76652200D02*
X121169410Y-76604580D01*
X121169410Y-76604580D02*
X121169410Y-76699819D01*
X120217030Y-75699819D02*
X120693220Y-75699819D01*
X120693220Y-75699819D02*
X120740839Y-76176009D01*
X120740839Y-76176009D02*
X120693220Y-76128390D01*
X120693220Y-76128390D02*
X120597982Y-76080771D01*
X120597982Y-76080771D02*
X120359887Y-76080771D01*
X120359887Y-76080771D02*
X120264649Y-76128390D01*
X120264649Y-76128390D02*
X120217030Y-76176009D01*
X120217030Y-76176009D02*
X120169411Y-76271247D01*
X120169411Y-76271247D02*
X120169411Y-76509342D01*
X120169411Y-76509342D02*
X120217030Y-76604580D01*
X120217030Y-76604580D02*
X120264649Y-76652200D01*
X120264649Y-76652200D02*
X120359887Y-76699819D01*
X120359887Y-76699819D02*
X120597982Y-76699819D01*
X120597982Y-76699819D02*
X120693220Y-76652200D01*
X120693220Y-76652200D02*
X120740839Y-76604580D01*
X119740839Y-76699819D02*
X119740839Y-75699819D01*
X119740839Y-75699819D02*
X119407506Y-76414104D01*
X119407506Y-76414104D02*
X119074173Y-75699819D01*
X119074173Y-75699819D02*
X119074173Y-76699819D01*
X118121792Y-76699819D02*
X118597982Y-76699819D01*
X118597982Y-76699819D02*
X118597982Y-75699819D01*
X117836077Y-76414104D02*
X117359887Y-76414104D01*
X117931315Y-76699819D02*
X117597982Y-75699819D01*
X117597982Y-75699819D02*
X117264649Y-76699819D01*
X116740839Y-75699819D02*
X116645601Y-75699819D01*
X116645601Y-75699819D02*
X116550363Y-75747438D01*
X116550363Y-75747438D02*
X116502744Y-75795057D01*
X116502744Y-75795057D02*
X116455125Y-75890295D01*
X116455125Y-75890295D02*
X116407506Y-76080771D01*
X116407506Y-76080771D02*
X116407506Y-76318866D01*
X116407506Y-76318866D02*
X116455125Y-76509342D01*
X116455125Y-76509342D02*
X116502744Y-76604580D01*
X116502744Y-76604580D02*
X116550363Y-76652200D01*
X116550363Y-76652200D02*
X116645601Y-76699819D01*
X116645601Y-76699819D02*
X116740839Y-76699819D01*
X116740839Y-76699819D02*
X116836077Y-76652200D01*
X116836077Y-76652200D02*
X116883696Y-76604580D01*
X116883696Y-76604580D02*
X116931315Y-76509342D01*
X116931315Y-76509342D02*
X116978934Y-76318866D01*
X116978934Y-76318866D02*
X116978934Y-76080771D01*
X116978934Y-76080771D02*
X116931315Y-75890295D01*
X116931315Y-75890295D02*
X116883696Y-75795057D01*
X116883696Y-75795057D02*
X116836077Y-75747438D01*
X116836077Y-75747438D02*
X116740839Y-75699819D01*
X115550363Y-75699819D02*
X115740839Y-75699819D01*
X115740839Y-75699819D02*
X115836077Y-75747438D01*
X115836077Y-75747438D02*
X115883696Y-75795057D01*
X115883696Y-75795057D02*
X115978934Y-75937914D01*
X115978934Y-75937914D02*
X116026553Y-76128390D01*
X116026553Y-76128390D02*
X116026553Y-76509342D01*
X116026553Y-76509342D02*
X115978934Y-76604580D01*
X115978934Y-76604580D02*
X115931315Y-76652200D01*
X115931315Y-76652200D02*
X115836077Y-76699819D01*
X115836077Y-76699819D02*
X115645601Y-76699819D01*
X115645601Y-76699819D02*
X115550363Y-76652200D01*
X115550363Y-76652200D02*
X115502744Y-76604580D01*
X115502744Y-76604580D02*
X115455125Y-76509342D01*
X115455125Y-76509342D02*
X115455125Y-76271247D01*
X115455125Y-76271247D02*
X115502744Y-76176009D01*
X115502744Y-76176009D02*
X115550363Y-76128390D01*
X115550363Y-76128390D02*
X115645601Y-76080771D01*
X115645601Y-76080771D02*
X115836077Y-76080771D01*
X115836077Y-76080771D02*
X115931315Y-76128390D01*
X115931315Y-76128390D02*
X115978934Y-76176009D01*
X115978934Y-76176009D02*
X116026553Y-76271247D01*
X114836077Y-75699819D02*
X114740839Y-75699819D01*
X114740839Y-75699819D02*
X114645601Y-75747438D01*
X114645601Y-75747438D02*
X114597982Y-75795057D01*
X114597982Y-75795057D02*
X114550363Y-75890295D01*
X114550363Y-75890295D02*
X114502744Y-76080771D01*
X114502744Y-76080771D02*
X114502744Y-76318866D01*
X114502744Y-76318866D02*
X114550363Y-76509342D01*
X114550363Y-76509342D02*
X114597982Y-76604580D01*
X114597982Y-76604580D02*
X114645601Y-76652200D01*
X114645601Y-76652200D02*
X114740839Y-76699819D01*
X114740839Y-76699819D02*
X114836077Y-76699819D01*
X114836077Y-76699819D02*
X114931315Y-76652200D01*
X114931315Y-76652200D02*
X114978934Y-76604580D01*
X114978934Y-76604580D02*
X115026553Y-76509342D01*
X115026553Y-76509342D02*
X115074172Y-76318866D01*
X115074172Y-76318866D02*
X115074172Y-76080771D01*
X115074172Y-76080771D02*
X115026553Y-75890295D01*
X115026553Y-75890295D02*
X114978934Y-75795057D01*
X114978934Y-75795057D02*
X114931315Y-75747438D01*
X114931315Y-75747438D02*
X114836077Y-75699819D01*
X114169410Y-75699819D02*
X113550363Y-75699819D01*
X113550363Y-75699819D02*
X113883696Y-76080771D01*
X113883696Y-76080771D02*
X113740839Y-76080771D01*
X113740839Y-76080771D02*
X113645601Y-76128390D01*
X113645601Y-76128390D02*
X113597982Y-76176009D01*
X113597982Y-76176009D02*
X113550363Y-76271247D01*
X113550363Y-76271247D02*
X113550363Y-76509342D01*
X113550363Y-76509342D02*
X113597982Y-76604580D01*
X113597982Y-76604580D02*
X113645601Y-76652200D01*
X113645601Y-76652200D02*
X113740839Y-76699819D01*
X113740839Y-76699819D02*
X114026553Y-76699819D01*
X114026553Y-76699819D02*
X114121791Y-76652200D01*
X114121791Y-76652200D02*
X114169410Y-76604580D01*
X125121792Y-78214580D02*
X125169411Y-78262200D01*
X125169411Y-78262200D02*
X125312268Y-78309819D01*
X125312268Y-78309819D02*
X125407506Y-78309819D01*
X125407506Y-78309819D02*
X125550363Y-78262200D01*
X125550363Y-78262200D02*
X125645601Y-78166961D01*
X125645601Y-78166961D02*
X125693220Y-78071723D01*
X125693220Y-78071723D02*
X125740839Y-77881247D01*
X125740839Y-77881247D02*
X125740839Y-77738390D01*
X125740839Y-77738390D02*
X125693220Y-77547914D01*
X125693220Y-77547914D02*
X125645601Y-77452676D01*
X125645601Y-77452676D02*
X125550363Y-77357438D01*
X125550363Y-77357438D02*
X125407506Y-77309819D01*
X125407506Y-77309819D02*
X125312268Y-77309819D01*
X125312268Y-77309819D02*
X125169411Y-77357438D01*
X125169411Y-77357438D02*
X125121792Y-77405057D01*
X124169411Y-78309819D02*
X124740839Y-78309819D01*
X124455125Y-78309819D02*
X124455125Y-77309819D01*
X124455125Y-77309819D02*
X124550363Y-77452676D01*
X124550363Y-77452676D02*
X124645601Y-77547914D01*
X124645601Y-77547914D02*
X124740839Y-77595533D01*
X122455125Y-78309819D02*
X123026553Y-78309819D01*
X122740839Y-78309819D02*
X122740839Y-77309819D01*
X122740839Y-77309819D02*
X122836077Y-77452676D01*
X122836077Y-77452676D02*
X122931315Y-77547914D01*
X122931315Y-77547914D02*
X123026553Y-77595533D01*
X121836077Y-77309819D02*
X121740839Y-77309819D01*
X121740839Y-77309819D02*
X121645601Y-77357438D01*
X121645601Y-77357438D02*
X121597982Y-77405057D01*
X121597982Y-77405057D02*
X121550363Y-77500295D01*
X121550363Y-77500295D02*
X121502744Y-77690771D01*
X121502744Y-77690771D02*
X121502744Y-77928866D01*
X121502744Y-77928866D02*
X121550363Y-78119342D01*
X121550363Y-78119342D02*
X121597982Y-78214580D01*
X121597982Y-78214580D02*
X121645601Y-78262200D01*
X121645601Y-78262200D02*
X121740839Y-78309819D01*
X121740839Y-78309819D02*
X121836077Y-78309819D01*
X121836077Y-78309819D02*
X121931315Y-78262200D01*
X121931315Y-78262200D02*
X121978934Y-78214580D01*
X121978934Y-78214580D02*
X122026553Y-78119342D01*
X122026553Y-78119342D02*
X122074172Y-77928866D01*
X122074172Y-77928866D02*
X122074172Y-77690771D01*
X122074172Y-77690771D02*
X122026553Y-77500295D01*
X122026553Y-77500295D02*
X121978934Y-77405057D01*
X121978934Y-77405057D02*
X121931315Y-77357438D01*
X121931315Y-77357438D02*
X121836077Y-77309819D01*
X120883696Y-77309819D02*
X120788458Y-77309819D01*
X120788458Y-77309819D02*
X120693220Y-77357438D01*
X120693220Y-77357438D02*
X120645601Y-77405057D01*
X120645601Y-77405057D02*
X120597982Y-77500295D01*
X120597982Y-77500295D02*
X120550363Y-77690771D01*
X120550363Y-77690771D02*
X120550363Y-77928866D01*
X120550363Y-77928866D02*
X120597982Y-78119342D01*
X120597982Y-78119342D02*
X120645601Y-78214580D01*
X120645601Y-78214580D02*
X120693220Y-78262200D01*
X120693220Y-78262200D02*
X120788458Y-78309819D01*
X120788458Y-78309819D02*
X120883696Y-78309819D01*
X120883696Y-78309819D02*
X120978934Y-78262200D01*
X120978934Y-78262200D02*
X121026553Y-78214580D01*
X121026553Y-78214580D02*
X121074172Y-78119342D01*
X121074172Y-78119342D02*
X121121791Y-77928866D01*
X121121791Y-77928866D02*
X121121791Y-77690771D01*
X121121791Y-77690771D02*
X121074172Y-77500295D01*
X121074172Y-77500295D02*
X121026553Y-77405057D01*
X121026553Y-77405057D02*
X120978934Y-77357438D01*
X120978934Y-77357438D02*
X120883696Y-77309819D01*
X119931315Y-77309819D02*
X119836077Y-77309819D01*
X119836077Y-77309819D02*
X119740839Y-77357438D01*
X119740839Y-77357438D02*
X119693220Y-77405057D01*
X119693220Y-77405057D02*
X119645601Y-77500295D01*
X119645601Y-77500295D02*
X119597982Y-77690771D01*
X119597982Y-77690771D02*
X119597982Y-77928866D01*
X119597982Y-77928866D02*
X119645601Y-78119342D01*
X119645601Y-78119342D02*
X119693220Y-78214580D01*
X119693220Y-78214580D02*
X119740839Y-78262200D01*
X119740839Y-78262200D02*
X119836077Y-78309819D01*
X119836077Y-78309819D02*
X119931315Y-78309819D01*
X119931315Y-78309819D02*
X120026553Y-78262200D01*
X120026553Y-78262200D02*
X120074172Y-78214580D01*
X120074172Y-78214580D02*
X120121791Y-78119342D01*
X120121791Y-78119342D02*
X120169410Y-77928866D01*
X120169410Y-77928866D02*
X120169410Y-77690771D01*
X120169410Y-77690771D02*
X120121791Y-77500295D01*
X120121791Y-77500295D02*
X120074172Y-77405057D01*
X120074172Y-77405057D02*
X120026553Y-77357438D01*
X120026553Y-77357438D02*
X119931315Y-77309819D01*
X118740839Y-77643152D02*
X118740839Y-78309819D01*
X119169410Y-77643152D02*
X119169410Y-78166961D01*
X119169410Y-78166961D02*
X119121791Y-78262200D01*
X119121791Y-78262200D02*
X119026553Y-78309819D01*
X119026553Y-78309819D02*
X118883696Y-78309819D01*
X118883696Y-78309819D02*
X118788458Y-78262200D01*
X118788458Y-78262200D02*
X118740839Y-78214580D01*
X117931315Y-77786009D02*
X118264648Y-77786009D01*
X118264648Y-78309819D02*
X118264648Y-77309819D01*
X118264648Y-77309819D02*
X117788458Y-77309819D01*
X125693220Y-78919819D02*
X125693220Y-79729342D01*
X125693220Y-79729342D02*
X125645601Y-79824580D01*
X125645601Y-79824580D02*
X125597982Y-79872200D01*
X125597982Y-79872200D02*
X125502744Y-79919819D01*
X125502744Y-79919819D02*
X125312268Y-79919819D01*
X125312268Y-79919819D02*
X125217030Y-79872200D01*
X125217030Y-79872200D02*
X125169411Y-79824580D01*
X125169411Y-79824580D02*
X125121792Y-79729342D01*
X125121792Y-79729342D02*
X125121792Y-78919819D01*
X124121792Y-79919819D02*
X124693220Y-79919819D01*
X124407506Y-79919819D02*
X124407506Y-78919819D01*
X124407506Y-78919819D02*
X124502744Y-79062676D01*
X124502744Y-79062676D02*
X124597982Y-79157914D01*
X124597982Y-79157914D02*
X124693220Y-79205533D01*
X123645601Y-79872200D02*
X123645601Y-79919819D01*
X123645601Y-79919819D02*
X123693220Y-80015057D01*
X123693220Y-80015057D02*
X123740839Y-80062676D01*
X122455125Y-78919819D02*
X122455125Y-79729342D01*
X122455125Y-79729342D02*
X122407506Y-79824580D01*
X122407506Y-79824580D02*
X122359887Y-79872200D01*
X122359887Y-79872200D02*
X122264649Y-79919819D01*
X122264649Y-79919819D02*
X122074173Y-79919819D01*
X122074173Y-79919819D02*
X121978935Y-79872200D01*
X121978935Y-79872200D02*
X121931316Y-79824580D01*
X121931316Y-79824580D02*
X121883697Y-79729342D01*
X121883697Y-79729342D02*
X121883697Y-78919819D01*
X121455125Y-79015057D02*
X121407506Y-78967438D01*
X121407506Y-78967438D02*
X121312268Y-78919819D01*
X121312268Y-78919819D02*
X121074173Y-78919819D01*
X121074173Y-78919819D02*
X120978935Y-78967438D01*
X120978935Y-78967438D02*
X120931316Y-79015057D01*
X120931316Y-79015057D02*
X120883697Y-79110295D01*
X120883697Y-79110295D02*
X120883697Y-79205533D01*
X120883697Y-79205533D02*
X120931316Y-79348390D01*
X120931316Y-79348390D02*
X121502744Y-79919819D01*
X121502744Y-79919819D02*
X120883697Y-79919819D01*
X119693220Y-78919819D02*
X119693220Y-79729342D01*
X119693220Y-79729342D02*
X119645601Y-79824580D01*
X119645601Y-79824580D02*
X119597982Y-79872200D01*
X119597982Y-79872200D02*
X119502744Y-79919819D01*
X119502744Y-79919819D02*
X119312268Y-79919819D01*
X119312268Y-79919819D02*
X119217030Y-79872200D01*
X119217030Y-79872200D02*
X119169411Y-79824580D01*
X119169411Y-79824580D02*
X119121792Y-79729342D01*
X119121792Y-79729342D02*
X119121792Y-78919819D01*
X118693220Y-79872200D02*
X118550363Y-79919819D01*
X118550363Y-79919819D02*
X118312268Y-79919819D01*
X118312268Y-79919819D02*
X118217030Y-79872200D01*
X118217030Y-79872200D02*
X118169411Y-79824580D01*
X118169411Y-79824580D02*
X118121792Y-79729342D01*
X118121792Y-79729342D02*
X118121792Y-79634104D01*
X118121792Y-79634104D02*
X118169411Y-79538866D01*
X118169411Y-79538866D02*
X118217030Y-79491247D01*
X118217030Y-79491247D02*
X118312268Y-79443628D01*
X118312268Y-79443628D02*
X118502744Y-79396009D01*
X118502744Y-79396009D02*
X118597982Y-79348390D01*
X118597982Y-79348390D02*
X118645601Y-79300771D01*
X118645601Y-79300771D02*
X118693220Y-79205533D01*
X118693220Y-79205533D02*
X118693220Y-79110295D01*
X118693220Y-79110295D02*
X118645601Y-79015057D01*
X118645601Y-79015057D02*
X118597982Y-78967438D01*
X118597982Y-78967438D02*
X118502744Y-78919819D01*
X118502744Y-78919819D02*
X118264649Y-78919819D01*
X118264649Y-78919819D02*
X118121792Y-78967438D01*
X117359887Y-79396009D02*
X117217030Y-79443628D01*
X117217030Y-79443628D02*
X117169411Y-79491247D01*
X117169411Y-79491247D02*
X117121792Y-79586485D01*
X117121792Y-79586485D02*
X117121792Y-79729342D01*
X117121792Y-79729342D02*
X117169411Y-79824580D01*
X117169411Y-79824580D02*
X117217030Y-79872200D01*
X117217030Y-79872200D02*
X117312268Y-79919819D01*
X117312268Y-79919819D02*
X117693220Y-79919819D01*
X117693220Y-79919819D02*
X117693220Y-78919819D01*
X117693220Y-78919819D02*
X117359887Y-78919819D01*
X117359887Y-78919819D02*
X117264649Y-78967438D01*
X117264649Y-78967438D02*
X117217030Y-79015057D01*
X117217030Y-79015057D02*
X117169411Y-79110295D01*
X117169411Y-79110295D02*
X117169411Y-79205533D01*
X117169411Y-79205533D02*
X117217030Y-79300771D01*
X117217030Y-79300771D02*
X117264649Y-79348390D01*
X117264649Y-79348390D02*
X117359887Y-79396009D01*
X117359887Y-79396009D02*
X117693220Y-79396009D01*
X116693220Y-79919819D02*
X116693220Y-78919819D01*
X116693220Y-78919819D02*
X116455125Y-78919819D01*
X116455125Y-78919819D02*
X116312268Y-78967438D01*
X116312268Y-78967438D02*
X116217030Y-79062676D01*
X116217030Y-79062676D02*
X116169411Y-79157914D01*
X116169411Y-79157914D02*
X116121792Y-79348390D01*
X116121792Y-79348390D02*
X116121792Y-79491247D01*
X116121792Y-79491247D02*
X116169411Y-79681723D01*
X116169411Y-79681723D02*
X116217030Y-79776961D01*
X116217030Y-79776961D02*
X116312268Y-79872200D01*
X116312268Y-79872200D02*
X116455125Y-79919819D01*
X116455125Y-79919819D02*
X116693220Y-79919819D01*
X115359887Y-79396009D02*
X115693220Y-79396009D01*
X115693220Y-79919819D02*
X115693220Y-78919819D01*
X115693220Y-78919819D02*
X115217030Y-78919819D01*
X114645601Y-78919819D02*
X114550363Y-78919819D01*
X114550363Y-78919819D02*
X114455125Y-78967438D01*
X114455125Y-78967438D02*
X114407506Y-79015057D01*
X114407506Y-79015057D02*
X114359887Y-79110295D01*
X114359887Y-79110295D02*
X114312268Y-79300771D01*
X114312268Y-79300771D02*
X114312268Y-79538866D01*
X114312268Y-79538866D02*
X114359887Y-79729342D01*
X114359887Y-79729342D02*
X114407506Y-79824580D01*
X114407506Y-79824580D02*
X114455125Y-79872200D01*
X114455125Y-79872200D02*
X114550363Y-79919819D01*
X114550363Y-79919819D02*
X114645601Y-79919819D01*
X114645601Y-79919819D02*
X114740839Y-79872200D01*
X114740839Y-79872200D02*
X114788458Y-79824580D01*
X114788458Y-79824580D02*
X114836077Y-79729342D01*
X114836077Y-79729342D02*
X114883696Y-79538866D01*
X114883696Y-79538866D02*
X114883696Y-79300771D01*
X114883696Y-79300771D02*
X114836077Y-79110295D01*
X114836077Y-79110295D02*
X114788458Y-79015057D01*
X114788458Y-79015057D02*
X114740839Y-78967438D01*
X114740839Y-78967438D02*
X114645601Y-78919819D01*
X113359887Y-79919819D02*
X113931315Y-79919819D01*
X113645601Y-79919819D02*
X113645601Y-78919819D01*
X113645601Y-78919819D02*
X113740839Y-79062676D01*
X113740839Y-79062676D02*
X113836077Y-79157914D01*
X113836077Y-79157914D02*
X113931315Y-79205533D01*
X113026553Y-78919819D02*
X112788458Y-79919819D01*
X112788458Y-79919819D02*
X112597982Y-79205533D01*
X112597982Y-79205533D02*
X112407506Y-79919819D01*
X112407506Y-79919819D02*
X112169411Y-78919819D01*
X111312268Y-78919819D02*
X111788458Y-78919819D01*
X111788458Y-78919819D02*
X111836077Y-79396009D01*
X111836077Y-79396009D02*
X111788458Y-79348390D01*
X111788458Y-79348390D02*
X111693220Y-79300771D01*
X111693220Y-79300771D02*
X111455125Y-79300771D01*
X111455125Y-79300771D02*
X111359887Y-79348390D01*
X111359887Y-79348390D02*
X111312268Y-79396009D01*
X111312268Y-79396009D02*
X111264649Y-79491247D01*
X111264649Y-79491247D02*
X111264649Y-79729342D01*
X111264649Y-79729342D02*
X111312268Y-79824580D01*
X111312268Y-79824580D02*
X111359887Y-79872200D01*
X111359887Y-79872200D02*
X111455125Y-79919819D01*
X111455125Y-79919819D02*
X111693220Y-79919819D01*
X111693220Y-79919819D02*
X111788458Y-79872200D01*
X111788458Y-79872200D02*
X111836077Y-79824580D01*
X125359887Y-81006009D02*
X125693220Y-81006009D01*
X125693220Y-81529819D02*
X125693220Y-80529819D01*
X125693220Y-80529819D02*
X125217030Y-80529819D01*
X124312268Y-81529819D02*
X124883696Y-81529819D01*
X124597982Y-81529819D02*
X124597982Y-80529819D01*
X124597982Y-80529819D02*
X124693220Y-80672676D01*
X124693220Y-80672676D02*
X124788458Y-80767914D01*
X124788458Y-80767914D02*
X124883696Y-80815533D01*
X123121791Y-81529819D02*
X123121791Y-80529819D01*
X123121791Y-80529819D02*
X122788458Y-81244104D01*
X122788458Y-81244104D02*
X122455125Y-80529819D01*
X122455125Y-80529819D02*
X122455125Y-81529819D01*
X121978934Y-81529819D02*
X121978934Y-80529819D01*
X121502744Y-81529819D02*
X121502744Y-80529819D01*
X121502744Y-80529819D02*
X120931316Y-81529819D01*
X120931316Y-81529819D02*
X120931316Y-80529819D01*
X120455125Y-81529819D02*
X120455125Y-80529819D01*
X120026554Y-81482200D02*
X119883697Y-81529819D01*
X119883697Y-81529819D02*
X119645602Y-81529819D01*
X119645602Y-81529819D02*
X119550364Y-81482200D01*
X119550364Y-81482200D02*
X119502745Y-81434580D01*
X119502745Y-81434580D02*
X119455126Y-81339342D01*
X119455126Y-81339342D02*
X119455126Y-81244104D01*
X119455126Y-81244104D02*
X119502745Y-81148866D01*
X119502745Y-81148866D02*
X119550364Y-81101247D01*
X119550364Y-81101247D02*
X119645602Y-81053628D01*
X119645602Y-81053628D02*
X119836078Y-81006009D01*
X119836078Y-81006009D02*
X119931316Y-80958390D01*
X119931316Y-80958390D02*
X119978935Y-80910771D01*
X119978935Y-80910771D02*
X120026554Y-80815533D01*
X120026554Y-80815533D02*
X120026554Y-80720295D01*
X120026554Y-80720295D02*
X119978935Y-80625057D01*
X119978935Y-80625057D02*
X119931316Y-80577438D01*
X119931316Y-80577438D02*
X119836078Y-80529819D01*
X119836078Y-80529819D02*
X119597983Y-80529819D01*
X119597983Y-80529819D02*
X119455126Y-80577438D01*
X119026554Y-81529819D02*
X119026554Y-80529819D01*
X119026554Y-80529819D02*
X118693221Y-81244104D01*
X118693221Y-81244104D02*
X118359888Y-80529819D01*
X118359888Y-80529819D02*
X118359888Y-81529819D01*
X117883697Y-81529819D02*
X117883697Y-80529819D01*
X117883697Y-80529819D02*
X117645602Y-80529819D01*
X117645602Y-80529819D02*
X117502745Y-80577438D01*
X117502745Y-80577438D02*
X117407507Y-80672676D01*
X117407507Y-80672676D02*
X117359888Y-80767914D01*
X117359888Y-80767914D02*
X117312269Y-80958390D01*
X117312269Y-80958390D02*
X117312269Y-81101247D01*
X117312269Y-81101247D02*
X117359888Y-81291723D01*
X117359888Y-81291723D02*
X117407507Y-81386961D01*
X117407507Y-81386961D02*
X117502745Y-81482200D01*
X117502745Y-81482200D02*
X117645602Y-81529819D01*
X117645602Y-81529819D02*
X117883697Y-81529819D01*
X116312269Y-81434580D02*
X116359888Y-81482200D01*
X116359888Y-81482200D02*
X116502745Y-81529819D01*
X116502745Y-81529819D02*
X116597983Y-81529819D01*
X116597983Y-81529819D02*
X116740840Y-81482200D01*
X116740840Y-81482200D02*
X116836078Y-81386961D01*
X116836078Y-81386961D02*
X116883697Y-81291723D01*
X116883697Y-81291723D02*
X116931316Y-81101247D01*
X116931316Y-81101247D02*
X116931316Y-80958390D01*
X116931316Y-80958390D02*
X116883697Y-80767914D01*
X116883697Y-80767914D02*
X116836078Y-80672676D01*
X116836078Y-80672676D02*
X116740840Y-80577438D01*
X116740840Y-80577438D02*
X116597983Y-80529819D01*
X116597983Y-80529819D02*
X116502745Y-80529819D01*
X116502745Y-80529819D02*
X116359888Y-80577438D01*
X116359888Y-80577438D02*
X116312269Y-80625057D01*
X115931316Y-80625057D02*
X115883697Y-80577438D01*
X115883697Y-80577438D02*
X115788459Y-80529819D01*
X115788459Y-80529819D02*
X115550364Y-80529819D01*
X115550364Y-80529819D02*
X115455126Y-80577438D01*
X115455126Y-80577438D02*
X115407507Y-80625057D01*
X115407507Y-80625057D02*
X115359888Y-80720295D01*
X115359888Y-80720295D02*
X115359888Y-80815533D01*
X115359888Y-80815533D02*
X115407507Y-80958390D01*
X115407507Y-80958390D02*
X115978935Y-81529819D01*
X115978935Y-81529819D02*
X115359888Y-81529819D01*
X114502745Y-80529819D02*
X114693221Y-80529819D01*
X114693221Y-80529819D02*
X114788459Y-80577438D01*
X114788459Y-80577438D02*
X114836078Y-80625057D01*
X114836078Y-80625057D02*
X114931316Y-80767914D01*
X114931316Y-80767914D02*
X114978935Y-80958390D01*
X114978935Y-80958390D02*
X114978935Y-81339342D01*
X114978935Y-81339342D02*
X114931316Y-81434580D01*
X114931316Y-81434580D02*
X114883697Y-81482200D01*
X114883697Y-81482200D02*
X114788459Y-81529819D01*
X114788459Y-81529819D02*
X114597983Y-81529819D01*
X114597983Y-81529819D02*
X114502745Y-81482200D01*
X114502745Y-81482200D02*
X114455126Y-81434580D01*
X114455126Y-81434580D02*
X114407507Y-81339342D01*
X114407507Y-81339342D02*
X114407507Y-81101247D01*
X114407507Y-81101247D02*
X114455126Y-81006009D01*
X114455126Y-81006009D02*
X114502745Y-80958390D01*
X114502745Y-80958390D02*
X114597983Y-80910771D01*
X114597983Y-80910771D02*
X114788459Y-80910771D01*
X114788459Y-80910771D02*
X114883697Y-80958390D01*
X114883697Y-80958390D02*
X114931316Y-81006009D01*
X114931316Y-81006009D02*
X114978935Y-81101247D01*
X113788459Y-80529819D02*
X113693221Y-80529819D01*
X113693221Y-80529819D02*
X113597983Y-80577438D01*
X113597983Y-80577438D02*
X113550364Y-80625057D01*
X113550364Y-80625057D02*
X113502745Y-80720295D01*
X113502745Y-80720295D02*
X113455126Y-80910771D01*
X113455126Y-80910771D02*
X113455126Y-81148866D01*
X113455126Y-81148866D02*
X113502745Y-81339342D01*
X113502745Y-81339342D02*
X113550364Y-81434580D01*
X113550364Y-81434580D02*
X113597983Y-81482200D01*
X113597983Y-81482200D02*
X113693221Y-81529819D01*
X113693221Y-81529819D02*
X113788459Y-81529819D01*
X113788459Y-81529819D02*
X113883697Y-81482200D01*
X113883697Y-81482200D02*
X113931316Y-81434580D01*
X113931316Y-81434580D02*
X113978935Y-81339342D01*
X113978935Y-81339342D02*
X114026554Y-81148866D01*
X114026554Y-81148866D02*
X114026554Y-80910771D01*
X114026554Y-80910771D02*
X113978935Y-80720295D01*
X113978935Y-80720295D02*
X113931316Y-80625057D01*
X113931316Y-80625057D02*
X113883697Y-80577438D01*
X113883697Y-80577438D02*
X113788459Y-80529819D01*
X112693221Y-81006009D02*
X113026554Y-81006009D01*
X113026554Y-81529819D02*
X113026554Y-80529819D01*
X113026554Y-80529819D02*
X112550364Y-80529819D01*
X112169411Y-81148866D02*
X111407507Y-81148866D01*
X110978935Y-80625057D02*
X110931316Y-80577438D01*
X110931316Y-80577438D02*
X110836078Y-80529819D01*
X110836078Y-80529819D02*
X110597983Y-80529819D01*
X110597983Y-80529819D02*
X110502745Y-80577438D01*
X110502745Y-80577438D02*
X110455126Y-80625057D01*
X110455126Y-80625057D02*
X110407507Y-80720295D01*
X110407507Y-80720295D02*
X110407507Y-80815533D01*
X110407507Y-80815533D02*
X110455126Y-80958390D01*
X110455126Y-80958390D02*
X111026554Y-81529819D01*
X111026554Y-81529819D02*
X110407507Y-81529819D01*
X141353220Y-70569819D02*
X141353220Y-71379342D01*
X141353220Y-71379342D02*
X141305601Y-71474580D01*
X141305601Y-71474580D02*
X141257982Y-71522200D01*
X141257982Y-71522200D02*
X141162744Y-71569819D01*
X141162744Y-71569819D02*
X140972268Y-71569819D01*
X140972268Y-71569819D02*
X140877030Y-71522200D01*
X140877030Y-71522200D02*
X140829411Y-71474580D01*
X140829411Y-71474580D02*
X140781792Y-71379342D01*
X140781792Y-71379342D02*
X140781792Y-70569819D01*
X140305601Y-70903152D02*
X140305601Y-71569819D01*
X140305601Y-70998390D02*
X140257982Y-70950771D01*
X140257982Y-70950771D02*
X140162744Y-70903152D01*
X140162744Y-70903152D02*
X140019887Y-70903152D01*
X140019887Y-70903152D02*
X139924649Y-70950771D01*
X139924649Y-70950771D02*
X139877030Y-71046009D01*
X139877030Y-71046009D02*
X139877030Y-71569819D01*
X138972268Y-71569819D02*
X138972268Y-70569819D01*
X138972268Y-71522200D02*
X139067506Y-71569819D01*
X139067506Y-71569819D02*
X139257982Y-71569819D01*
X139257982Y-71569819D02*
X139353220Y-71522200D01*
X139353220Y-71522200D02*
X139400839Y-71474580D01*
X139400839Y-71474580D02*
X139448458Y-71379342D01*
X139448458Y-71379342D02*
X139448458Y-71093628D01*
X139448458Y-71093628D02*
X139400839Y-70998390D01*
X139400839Y-70998390D02*
X139353220Y-70950771D01*
X139353220Y-70950771D02*
X139257982Y-70903152D01*
X139257982Y-70903152D02*
X139067506Y-70903152D01*
X139067506Y-70903152D02*
X138972268Y-70950771D01*
X138115125Y-71522200D02*
X138210363Y-71569819D01*
X138210363Y-71569819D02*
X138400839Y-71569819D01*
X138400839Y-71569819D02*
X138496077Y-71522200D01*
X138496077Y-71522200D02*
X138543696Y-71426961D01*
X138543696Y-71426961D02*
X138543696Y-71046009D01*
X138543696Y-71046009D02*
X138496077Y-70950771D01*
X138496077Y-70950771D02*
X138400839Y-70903152D01*
X138400839Y-70903152D02*
X138210363Y-70903152D01*
X138210363Y-70903152D02*
X138115125Y-70950771D01*
X138115125Y-70950771D02*
X138067506Y-71046009D01*
X138067506Y-71046009D02*
X138067506Y-71141247D01*
X138067506Y-71141247D02*
X138543696Y-71236485D01*
X137781791Y-70903152D02*
X137400839Y-70903152D01*
X137638934Y-71569819D02*
X137638934Y-70712676D01*
X137638934Y-70712676D02*
X137591315Y-70617438D01*
X137591315Y-70617438D02*
X137496077Y-70569819D01*
X137496077Y-70569819D02*
X137400839Y-70569819D01*
X137067505Y-71569819D02*
X137067505Y-70903152D01*
X137067505Y-70569819D02*
X137115124Y-70617438D01*
X137115124Y-70617438D02*
X137067505Y-70665057D01*
X137067505Y-70665057D02*
X137019886Y-70617438D01*
X137019886Y-70617438D02*
X137067505Y-70569819D01*
X137067505Y-70569819D02*
X137067505Y-70665057D01*
X136591315Y-70903152D02*
X136591315Y-71569819D01*
X136591315Y-70998390D02*
X136543696Y-70950771D01*
X136543696Y-70950771D02*
X136448458Y-70903152D01*
X136448458Y-70903152D02*
X136305601Y-70903152D01*
X136305601Y-70903152D02*
X136210363Y-70950771D01*
X136210363Y-70950771D02*
X136162744Y-71046009D01*
X136162744Y-71046009D02*
X136162744Y-71569819D01*
X135305601Y-71522200D02*
X135400839Y-71569819D01*
X135400839Y-71569819D02*
X135591315Y-71569819D01*
X135591315Y-71569819D02*
X135686553Y-71522200D01*
X135686553Y-71522200D02*
X135734172Y-71426961D01*
X135734172Y-71426961D02*
X135734172Y-71046009D01*
X135734172Y-71046009D02*
X135686553Y-70950771D01*
X135686553Y-70950771D02*
X135591315Y-70903152D01*
X135591315Y-70903152D02*
X135400839Y-70903152D01*
X135400839Y-70903152D02*
X135305601Y-70950771D01*
X135305601Y-70950771D02*
X135257982Y-71046009D01*
X135257982Y-71046009D02*
X135257982Y-71141247D01*
X135257982Y-71141247D02*
X135734172Y-71236485D01*
X134400839Y-71569819D02*
X134400839Y-70569819D01*
X134400839Y-71522200D02*
X134496077Y-71569819D01*
X134496077Y-71569819D02*
X134686553Y-71569819D01*
X134686553Y-71569819D02*
X134781791Y-71522200D01*
X134781791Y-71522200D02*
X134829410Y-71474580D01*
X134829410Y-71474580D02*
X134877029Y-71379342D01*
X134877029Y-71379342D02*
X134877029Y-71093628D01*
X134877029Y-71093628D02*
X134829410Y-70998390D01*
X134829410Y-70998390D02*
X134781791Y-70950771D01*
X134781791Y-70950771D02*
X134686553Y-70903152D01*
X134686553Y-70903152D02*
X134496077Y-70903152D01*
X134496077Y-70903152D02*
X134400839Y-70950771D01*
X133210362Y-71522200D02*
X133067505Y-71569819D01*
X133067505Y-71569819D02*
X132829410Y-71569819D01*
X132829410Y-71569819D02*
X132734172Y-71522200D01*
X132734172Y-71522200D02*
X132686553Y-71474580D01*
X132686553Y-71474580D02*
X132638934Y-71379342D01*
X132638934Y-71379342D02*
X132638934Y-71284104D01*
X132638934Y-71284104D02*
X132686553Y-71188866D01*
X132686553Y-71188866D02*
X132734172Y-71141247D01*
X132734172Y-71141247D02*
X132829410Y-71093628D01*
X132829410Y-71093628D02*
X133019886Y-71046009D01*
X133019886Y-71046009D02*
X133115124Y-70998390D01*
X133115124Y-70998390D02*
X133162743Y-70950771D01*
X133162743Y-70950771D02*
X133210362Y-70855533D01*
X133210362Y-70855533D02*
X133210362Y-70760295D01*
X133210362Y-70760295D02*
X133162743Y-70665057D01*
X133162743Y-70665057D02*
X133115124Y-70617438D01*
X133115124Y-70617438D02*
X133019886Y-70569819D01*
X133019886Y-70569819D02*
X132781791Y-70569819D01*
X132781791Y-70569819D02*
X132638934Y-70617438D01*
X132305600Y-70903152D02*
X132067505Y-71569819D01*
X131829410Y-70903152D02*
X132067505Y-71569819D01*
X132067505Y-71569819D02*
X132162743Y-71807914D01*
X132162743Y-71807914D02*
X132210362Y-71855533D01*
X132210362Y-71855533D02*
X132305600Y-71903152D01*
X131496076Y-71522200D02*
X131400838Y-71569819D01*
X131400838Y-71569819D02*
X131210362Y-71569819D01*
X131210362Y-71569819D02*
X131115124Y-71522200D01*
X131115124Y-71522200D02*
X131067505Y-71426961D01*
X131067505Y-71426961D02*
X131067505Y-71379342D01*
X131067505Y-71379342D02*
X131115124Y-71284104D01*
X131115124Y-71284104D02*
X131210362Y-71236485D01*
X131210362Y-71236485D02*
X131353219Y-71236485D01*
X131353219Y-71236485D02*
X131448457Y-71188866D01*
X131448457Y-71188866D02*
X131496076Y-71093628D01*
X131496076Y-71093628D02*
X131496076Y-71046009D01*
X131496076Y-71046009D02*
X131448457Y-70950771D01*
X131448457Y-70950771D02*
X131353219Y-70903152D01*
X131353219Y-70903152D02*
X131210362Y-70903152D01*
X131210362Y-70903152D02*
X131115124Y-70950771D01*
X130781790Y-70903152D02*
X130400838Y-70903152D01*
X130638933Y-70569819D02*
X130638933Y-71426961D01*
X130638933Y-71426961D02*
X130591314Y-71522200D01*
X130591314Y-71522200D02*
X130496076Y-71569819D01*
X130496076Y-71569819D02*
X130400838Y-71569819D01*
X129686552Y-71522200D02*
X129781790Y-71569819D01*
X129781790Y-71569819D02*
X129972266Y-71569819D01*
X129972266Y-71569819D02*
X130067504Y-71522200D01*
X130067504Y-71522200D02*
X130115123Y-71426961D01*
X130115123Y-71426961D02*
X130115123Y-71046009D01*
X130115123Y-71046009D02*
X130067504Y-70950771D01*
X130067504Y-70950771D02*
X129972266Y-70903152D01*
X129972266Y-70903152D02*
X129781790Y-70903152D01*
X129781790Y-70903152D02*
X129686552Y-70950771D01*
X129686552Y-70950771D02*
X129638933Y-71046009D01*
X129638933Y-71046009D02*
X129638933Y-71141247D01*
X129638933Y-71141247D02*
X130115123Y-71236485D01*
X129210361Y-71569819D02*
X129210361Y-70903152D01*
X129210361Y-70998390D02*
X129162742Y-70950771D01*
X129162742Y-70950771D02*
X129067504Y-70903152D01*
X129067504Y-70903152D02*
X128924647Y-70903152D01*
X128924647Y-70903152D02*
X128829409Y-70950771D01*
X128829409Y-70950771D02*
X128781790Y-71046009D01*
X128781790Y-71046009D02*
X128781790Y-71569819D01*
X128781790Y-71046009D02*
X128734171Y-70950771D01*
X128734171Y-70950771D02*
X128638933Y-70903152D01*
X128638933Y-70903152D02*
X128496076Y-70903152D01*
X128496076Y-70903152D02*
X128400837Y-70950771D01*
X128400837Y-70950771D02*
X128353218Y-71046009D01*
X128353218Y-71046009D02*
X128353218Y-71569819D01*
X127924647Y-71522200D02*
X127829409Y-71569819D01*
X127829409Y-71569819D02*
X127638933Y-71569819D01*
X127638933Y-71569819D02*
X127543695Y-71522200D01*
X127543695Y-71522200D02*
X127496076Y-71426961D01*
X127496076Y-71426961D02*
X127496076Y-71379342D01*
X127496076Y-71379342D02*
X127543695Y-71284104D01*
X127543695Y-71284104D02*
X127638933Y-71236485D01*
X127638933Y-71236485D02*
X127781790Y-71236485D01*
X127781790Y-71236485D02*
X127877028Y-71188866D01*
X127877028Y-71188866D02*
X127924647Y-71093628D01*
X127924647Y-71093628D02*
X127924647Y-71046009D01*
X127924647Y-71046009D02*
X127877028Y-70950771D01*
X127877028Y-70950771D02*
X127781790Y-70903152D01*
X127781790Y-70903152D02*
X127638933Y-70903152D01*
X127638933Y-70903152D02*
X127543695Y-70950771D01*
X127019885Y-71522200D02*
X127019885Y-71569819D01*
X127019885Y-71569819D02*
X127067504Y-71665057D01*
X127067504Y-71665057D02*
X127115123Y-71712676D01*
X125353219Y-71569819D02*
X125829409Y-71569819D01*
X125829409Y-71569819D02*
X125829409Y-70569819D01*
X124543695Y-71569819D02*
X125019885Y-71569819D01*
X125019885Y-71569819D02*
X125019885Y-70569819D01*
X123638933Y-71474580D02*
X123686552Y-71522200D01*
X123686552Y-71522200D02*
X123829409Y-71569819D01*
X123829409Y-71569819D02*
X123924647Y-71569819D01*
X123924647Y-71569819D02*
X124067504Y-71522200D01*
X124067504Y-71522200D02*
X124162742Y-71426961D01*
X124162742Y-71426961D02*
X124210361Y-71331723D01*
X124210361Y-71331723D02*
X124257980Y-71141247D01*
X124257980Y-71141247D02*
X124257980Y-70998390D01*
X124257980Y-70998390D02*
X124210361Y-70807914D01*
X124210361Y-70807914D02*
X124162742Y-70712676D01*
X124162742Y-70712676D02*
X124067504Y-70617438D01*
X124067504Y-70617438D02*
X123924647Y-70569819D01*
X123924647Y-70569819D02*
X123829409Y-70569819D01*
X123829409Y-70569819D02*
X123686552Y-70617438D01*
X123686552Y-70617438D02*
X123638933Y-70665057D01*
X141353220Y-72513152D02*
X141353220Y-73513152D01*
X141353220Y-72560771D02*
X141257982Y-72513152D01*
X141257982Y-72513152D02*
X141067506Y-72513152D01*
X141067506Y-72513152D02*
X140972268Y-72560771D01*
X140972268Y-72560771D02*
X140924649Y-72608390D01*
X140924649Y-72608390D02*
X140877030Y-72703628D01*
X140877030Y-72703628D02*
X140877030Y-72989342D01*
X140877030Y-72989342D02*
X140924649Y-73084580D01*
X140924649Y-73084580D02*
X140972268Y-73132200D01*
X140972268Y-73132200D02*
X141067506Y-73179819D01*
X141067506Y-73179819D02*
X141257982Y-73179819D01*
X141257982Y-73179819D02*
X141353220Y-73132200D01*
X140019887Y-73132200D02*
X140115125Y-73179819D01*
X140115125Y-73179819D02*
X140305601Y-73179819D01*
X140305601Y-73179819D02*
X140400839Y-73132200D01*
X140400839Y-73132200D02*
X140448458Y-73084580D01*
X140448458Y-73084580D02*
X140496077Y-72989342D01*
X140496077Y-72989342D02*
X140496077Y-72703628D01*
X140496077Y-72703628D02*
X140448458Y-72608390D01*
X140448458Y-72608390D02*
X140400839Y-72560771D01*
X140400839Y-72560771D02*
X140305601Y-72513152D01*
X140305601Y-72513152D02*
X140115125Y-72513152D01*
X140115125Y-72513152D02*
X140019887Y-72560771D01*
X139591315Y-72798866D02*
X138829411Y-72798866D01*
X138353220Y-73179819D02*
X138353220Y-72513152D01*
X138353220Y-72703628D02*
X138305601Y-72608390D01*
X138305601Y-72608390D02*
X138257982Y-72560771D01*
X138257982Y-72560771D02*
X138162744Y-72513152D01*
X138162744Y-72513152D02*
X138067506Y-72513152D01*
X137353220Y-73132200D02*
X137448458Y-73179819D01*
X137448458Y-73179819D02*
X137638934Y-73179819D01*
X137638934Y-73179819D02*
X137734172Y-73132200D01*
X137734172Y-73132200D02*
X137781791Y-73036961D01*
X137781791Y-73036961D02*
X137781791Y-72656009D01*
X137781791Y-72656009D02*
X137734172Y-72560771D01*
X137734172Y-72560771D02*
X137638934Y-72513152D01*
X137638934Y-72513152D02*
X137448458Y-72513152D01*
X137448458Y-72513152D02*
X137353220Y-72560771D01*
X137353220Y-72560771D02*
X137305601Y-72656009D01*
X137305601Y-72656009D02*
X137305601Y-72751247D01*
X137305601Y-72751247D02*
X137781791Y-72846485D01*
X136924648Y-73132200D02*
X136829410Y-73179819D01*
X136829410Y-73179819D02*
X136638934Y-73179819D01*
X136638934Y-73179819D02*
X136543696Y-73132200D01*
X136543696Y-73132200D02*
X136496077Y-73036961D01*
X136496077Y-73036961D02*
X136496077Y-72989342D01*
X136496077Y-72989342D02*
X136543696Y-72894104D01*
X136543696Y-72894104D02*
X136638934Y-72846485D01*
X136638934Y-72846485D02*
X136781791Y-72846485D01*
X136781791Y-72846485D02*
X136877029Y-72798866D01*
X136877029Y-72798866D02*
X136924648Y-72703628D01*
X136924648Y-72703628D02*
X136924648Y-72656009D01*
X136924648Y-72656009D02*
X136877029Y-72560771D01*
X136877029Y-72560771D02*
X136781791Y-72513152D01*
X136781791Y-72513152D02*
X136638934Y-72513152D01*
X136638934Y-72513152D02*
X136543696Y-72560771D01*
X136210362Y-72513152D02*
X135829410Y-72513152D01*
X136067505Y-72179819D02*
X136067505Y-73036961D01*
X136067505Y-73036961D02*
X136019886Y-73132200D01*
X136019886Y-73132200D02*
X135924648Y-73179819D01*
X135924648Y-73179819D02*
X135829410Y-73179819D01*
X135353219Y-73179819D02*
X135448457Y-73132200D01*
X135448457Y-73132200D02*
X135496076Y-73084580D01*
X135496076Y-73084580D02*
X135543695Y-72989342D01*
X135543695Y-72989342D02*
X135543695Y-72703628D01*
X135543695Y-72703628D02*
X135496076Y-72608390D01*
X135496076Y-72608390D02*
X135448457Y-72560771D01*
X135448457Y-72560771D02*
X135353219Y-72513152D01*
X135353219Y-72513152D02*
X135210362Y-72513152D01*
X135210362Y-72513152D02*
X135115124Y-72560771D01*
X135115124Y-72560771D02*
X135067505Y-72608390D01*
X135067505Y-72608390D02*
X135019886Y-72703628D01*
X135019886Y-72703628D02*
X135019886Y-72989342D01*
X135019886Y-72989342D02*
X135067505Y-73084580D01*
X135067505Y-73084580D02*
X135115124Y-73132200D01*
X135115124Y-73132200D02*
X135210362Y-73179819D01*
X135210362Y-73179819D02*
X135353219Y-73179819D01*
X134591314Y-73084580D02*
X134543695Y-73132200D01*
X134543695Y-73132200D02*
X134591314Y-73179819D01*
X134591314Y-73179819D02*
X134638933Y-73132200D01*
X134638933Y-73132200D02*
X134591314Y-73084580D01*
X134591314Y-73084580D02*
X134591314Y-73179819D01*
X133686553Y-73132200D02*
X133781791Y-73179819D01*
X133781791Y-73179819D02*
X133972267Y-73179819D01*
X133972267Y-73179819D02*
X134067505Y-73132200D01*
X134067505Y-73132200D02*
X134115124Y-73084580D01*
X134115124Y-73084580D02*
X134162743Y-72989342D01*
X134162743Y-72989342D02*
X134162743Y-72703628D01*
X134162743Y-72703628D02*
X134115124Y-72608390D01*
X134115124Y-72608390D02*
X134067505Y-72560771D01*
X134067505Y-72560771D02*
X133972267Y-72513152D01*
X133972267Y-72513152D02*
X133781791Y-72513152D01*
X133781791Y-72513152D02*
X133686553Y-72560771D01*
X133115124Y-73179819D02*
X133210362Y-73132200D01*
X133210362Y-73132200D02*
X133257981Y-73084580D01*
X133257981Y-73084580D02*
X133305600Y-72989342D01*
X133305600Y-72989342D02*
X133305600Y-72703628D01*
X133305600Y-72703628D02*
X133257981Y-72608390D01*
X133257981Y-72608390D02*
X133210362Y-72560771D01*
X133210362Y-72560771D02*
X133115124Y-72513152D01*
X133115124Y-72513152D02*
X132972267Y-72513152D01*
X132972267Y-72513152D02*
X132877029Y-72560771D01*
X132877029Y-72560771D02*
X132829410Y-72608390D01*
X132829410Y-72608390D02*
X132781791Y-72703628D01*
X132781791Y-72703628D02*
X132781791Y-72989342D01*
X132781791Y-72989342D02*
X132829410Y-73084580D01*
X132829410Y-73084580D02*
X132877029Y-73132200D01*
X132877029Y-73132200D02*
X132972267Y-73179819D01*
X132972267Y-73179819D02*
X133115124Y-73179819D01*
X132353219Y-73179819D02*
X132353219Y-72513152D01*
X132353219Y-72608390D02*
X132305600Y-72560771D01*
X132305600Y-72560771D02*
X132210362Y-72513152D01*
X132210362Y-72513152D02*
X132067505Y-72513152D01*
X132067505Y-72513152D02*
X131972267Y-72560771D01*
X131972267Y-72560771D02*
X131924648Y-72656009D01*
X131924648Y-72656009D02*
X131924648Y-73179819D01*
X131924648Y-72656009D02*
X131877029Y-72560771D01*
X131877029Y-72560771D02*
X131781791Y-72513152D01*
X131781791Y-72513152D02*
X131638934Y-72513152D01*
X131638934Y-72513152D02*
X131543695Y-72560771D01*
X131543695Y-72560771D02*
X131496076Y-72656009D01*
X131496076Y-72656009D02*
X131496076Y-73179819D01*
X141063220Y-79169819D02*
X141063220Y-79979342D01*
X141063220Y-79979342D02*
X141015601Y-80074580D01*
X141015601Y-80074580D02*
X140967982Y-80122200D01*
X140967982Y-80122200D02*
X140872744Y-80169819D01*
X140872744Y-80169819D02*
X140682268Y-80169819D01*
X140682268Y-80169819D02*
X140587030Y-80122200D01*
X140587030Y-80122200D02*
X140539411Y-80074580D01*
X140539411Y-80074580D02*
X140491792Y-79979342D01*
X140491792Y-79979342D02*
X140491792Y-79169819D01*
X140063220Y-80122200D02*
X139920363Y-80169819D01*
X139920363Y-80169819D02*
X139682268Y-80169819D01*
X139682268Y-80169819D02*
X139587030Y-80122200D01*
X139587030Y-80122200D02*
X139539411Y-80074580D01*
X139539411Y-80074580D02*
X139491792Y-79979342D01*
X139491792Y-79979342D02*
X139491792Y-79884104D01*
X139491792Y-79884104D02*
X139539411Y-79788866D01*
X139539411Y-79788866D02*
X139587030Y-79741247D01*
X139587030Y-79741247D02*
X139682268Y-79693628D01*
X139682268Y-79693628D02*
X139872744Y-79646009D01*
X139872744Y-79646009D02*
X139967982Y-79598390D01*
X139967982Y-79598390D02*
X140015601Y-79550771D01*
X140015601Y-79550771D02*
X140063220Y-79455533D01*
X140063220Y-79455533D02*
X140063220Y-79360295D01*
X140063220Y-79360295D02*
X140015601Y-79265057D01*
X140015601Y-79265057D02*
X139967982Y-79217438D01*
X139967982Y-79217438D02*
X139872744Y-79169819D01*
X139872744Y-79169819D02*
X139634649Y-79169819D01*
X139634649Y-79169819D02*
X139491792Y-79217438D01*
X138729887Y-79646009D02*
X138587030Y-79693628D01*
X138587030Y-79693628D02*
X138539411Y-79741247D01*
X138539411Y-79741247D02*
X138491792Y-79836485D01*
X138491792Y-79836485D02*
X138491792Y-79979342D01*
X138491792Y-79979342D02*
X138539411Y-80074580D01*
X138539411Y-80074580D02*
X138587030Y-80122200D01*
X138587030Y-80122200D02*
X138682268Y-80169819D01*
X138682268Y-80169819D02*
X139063220Y-80169819D01*
X139063220Y-80169819D02*
X139063220Y-79169819D01*
X139063220Y-79169819D02*
X138729887Y-79169819D01*
X138729887Y-79169819D02*
X138634649Y-79217438D01*
X138634649Y-79217438D02*
X138587030Y-79265057D01*
X138587030Y-79265057D02*
X138539411Y-79360295D01*
X138539411Y-79360295D02*
X138539411Y-79455533D01*
X138539411Y-79455533D02*
X138587030Y-79550771D01*
X138587030Y-79550771D02*
X138634649Y-79598390D01*
X138634649Y-79598390D02*
X138729887Y-79646009D01*
X138729887Y-79646009D02*
X139063220Y-79646009D01*
X136777506Y-80169819D02*
X137348934Y-80169819D01*
X137063220Y-80169819D02*
X137063220Y-79169819D01*
X137063220Y-79169819D02*
X137158458Y-79312676D01*
X137158458Y-79312676D02*
X137253696Y-79407914D01*
X137253696Y-79407914D02*
X137348934Y-79455533D01*
X136348934Y-80074580D02*
X136301315Y-80122200D01*
X136301315Y-80122200D02*
X136348934Y-80169819D01*
X136348934Y-80169819D02*
X136396553Y-80122200D01*
X136396553Y-80122200D02*
X136348934Y-80074580D01*
X136348934Y-80074580D02*
X136348934Y-80169819D01*
X135348935Y-80169819D02*
X135920363Y-80169819D01*
X135634649Y-80169819D02*
X135634649Y-79169819D01*
X135634649Y-79169819D02*
X135729887Y-79312676D01*
X135729887Y-79312676D02*
X135825125Y-79407914D01*
X135825125Y-79407914D02*
X135920363Y-79455533D01*
X133967982Y-79169819D02*
X133777506Y-79169819D01*
X133777506Y-79169819D02*
X133682268Y-79217438D01*
X133682268Y-79217438D02*
X133587030Y-79312676D01*
X133587030Y-79312676D02*
X133539411Y-79503152D01*
X133539411Y-79503152D02*
X133539411Y-79836485D01*
X133539411Y-79836485D02*
X133587030Y-80026961D01*
X133587030Y-80026961D02*
X133682268Y-80122200D01*
X133682268Y-80122200D02*
X133777506Y-80169819D01*
X133777506Y-80169819D02*
X133967982Y-80169819D01*
X133967982Y-80169819D02*
X134063220Y-80122200D01*
X134063220Y-80122200D02*
X134158458Y-80026961D01*
X134158458Y-80026961D02*
X134206077Y-79836485D01*
X134206077Y-79836485D02*
X134206077Y-79503152D01*
X134206077Y-79503152D02*
X134158458Y-79312676D01*
X134158458Y-79312676D02*
X134063220Y-79217438D01*
X134063220Y-79217438D02*
X133967982Y-79169819D01*
X133110839Y-80169819D02*
X133110839Y-79169819D01*
X133110839Y-79169819D02*
X132539411Y-80169819D01*
X132539411Y-80169819D02*
X132539411Y-79169819D01*
X131587030Y-80169819D02*
X132063220Y-80169819D01*
X132063220Y-80169819D02*
X132063220Y-79169819D01*
X131063220Y-79693628D02*
X131063220Y-80169819D01*
X131396553Y-79169819D02*
X131063220Y-79693628D01*
X131063220Y-79693628D02*
X130729887Y-79169819D01*
M02*
