%TF.GenerationSoftware,KiCad,Pcbnew,7.0.10*%
%TF.CreationDate,2024-01-05T17:35:28-06:00*%
%TF.ProjectId,USB-CV1,5553422d-4356-4312-9e6b-696361645f70,rev?*%
%TF.SameCoordinates,Original*%
%TF.FileFunction,Copper,L3,Inr*%
%TF.FilePolarity,Positive*%
%FSLAX46Y46*%
G04 Gerber Fmt 4.6, Leading zero omitted, Abs format (unit mm)*
G04 Created by KiCad (PCBNEW 7.0.10) date 2024-01-05 17:35:28*
%MOMM*%
%LPD*%
G01*
G04 APERTURE LIST*
%TA.AperFunction,ComponentPad*%
%ADD10R,1.700000X1.700000*%
%TD*%
%TA.AperFunction,ComponentPad*%
%ADD11O,1.700000X1.700000*%
%TD*%
%TA.AperFunction,ComponentPad*%
%ADD12C,1.400000*%
%TD*%
%TA.AperFunction,ComponentPad*%
%ADD13O,1.400000X1.400000*%
%TD*%
%TA.AperFunction,ComponentPad*%
%ADD14R,1.350000X1.350000*%
%TD*%
%TA.AperFunction,ComponentPad*%
%ADD15O,1.350000X1.350000*%
%TD*%
%TA.AperFunction,ComponentPad*%
%ADD16R,1.600000X1.600000*%
%TD*%
%TA.AperFunction,ComponentPad*%
%ADD17C,1.600000*%
%TD*%
%TA.AperFunction,ComponentPad*%
%ADD18C,2.400000*%
%TD*%
%TA.AperFunction,ComponentPad*%
%ADD19O,2.400000X2.400000*%
%TD*%
%TA.AperFunction,ViaPad*%
%ADD20C,0.800000*%
%TD*%
G04 APERTURE END LIST*
D10*
%TO.N,/VBUS*%
%TO.C,J2*%
X122070000Y-85510000D03*
D11*
X122070000Y-88050000D03*
%TO.N,/D2- OUT*%
X119530000Y-85510000D03*
%TO.N,/D3- OUT*%
X119530000Y-88050000D03*
%TO.N,/D2+ OUT*%
X116990000Y-85510000D03*
%TO.N,/D3+ OUT*%
X116990000Y-88050000D03*
%TO.N,GND*%
X114450000Y-85510000D03*
X114450000Y-88050000D03*
%TO.N,unconnected-(J2-Pin_9-Pad9)*%
X111910000Y-85510000D03*
%TO.N,unconnected-(J2-Pin_10-Pad10)*%
X111910000Y-88050000D03*
%TD*%
D12*
%TO.N,/OC3*%
%TO.C,R2*%
X124960000Y-88320000D03*
D13*
%TO.N,+5V*%
X130040000Y-88320000D03*
%TD*%
D14*
%TO.N,+5V*%
%TO.C,J1*%
X134850000Y-82880000D03*
D15*
%TO.N,GND*%
X134850000Y-84880000D03*
%TO.N,/D2- IN*%
X132850000Y-82880000D03*
%TO.N,/D2+ IN*%
X132850000Y-84880000D03*
%TO.N,/D3- IN*%
X130850000Y-82880000D03*
%TO.N,/D3+ IN*%
X130850000Y-84880000D03*
%TO.N,/OC2*%
X128850000Y-82880000D03*
%TO.N,/OC3*%
X128850000Y-84880000D03*
%TD*%
D16*
%TO.N,/VBUS*%
%TO.C,C1*%
X133642651Y-75920000D03*
D17*
%TO.N,GND*%
X128642651Y-75920000D03*
%TD*%
D12*
%TO.N,+5V*%
%TO.C,R1*%
X137090000Y-88300000D03*
D13*
%TO.N,/OC2*%
X132010000Y-88300000D03*
%TD*%
D18*
%TO.N,+5V*%
%TO.C,FB1*%
X139690000Y-88410000D03*
D19*
%TO.N,Net-(F1-Pad2)*%
X139690000Y-75710000D03*
%TD*%
D20*
%TO.N,GND*%
X125160000Y-78110000D03*
%TD*%
%TA.AperFunction,Conductor*%
%TO.N,/VBUS*%
G36*
X140952796Y-71009742D02*
G01*
X140998604Y-71062500D01*
X141009861Y-71114262D01*
X141006282Y-74327506D01*
X140986523Y-74394524D01*
X140933668Y-74440220D01*
X140864498Y-74450086D01*
X140800975Y-74420990D01*
X140797982Y-74418304D01*
X140753217Y-74376768D01*
X140542634Y-74233195D01*
X140542630Y-74233193D01*
X140542627Y-74233191D01*
X140542626Y-74233190D01*
X140313006Y-74122612D01*
X140313008Y-74122612D01*
X140069466Y-74047489D01*
X140069462Y-74047488D01*
X140069458Y-74047487D01*
X139948231Y-74029214D01*
X139817440Y-74009500D01*
X139817435Y-74009500D01*
X139562565Y-74009500D01*
X139562559Y-74009500D01*
X139405609Y-74033157D01*
X139310542Y-74047487D01*
X139310539Y-74047488D01*
X139310533Y-74047489D01*
X139066992Y-74122612D01*
X138837373Y-74233190D01*
X138837372Y-74233191D01*
X138626782Y-74376768D01*
X138439952Y-74550121D01*
X138439950Y-74550123D01*
X138281041Y-74749388D01*
X138153608Y-74970109D01*
X138060492Y-75207362D01*
X138060490Y-75207369D01*
X138003777Y-75455845D01*
X137984732Y-75709995D01*
X137984732Y-75710004D01*
X138003777Y-75964154D01*
X138045441Y-76146697D01*
X138060492Y-76212637D01*
X138153607Y-76449888D01*
X138281041Y-76670612D01*
X138439950Y-76869877D01*
X138626783Y-77043232D01*
X138837366Y-77186805D01*
X138837371Y-77186807D01*
X138837372Y-77186808D01*
X138837373Y-77186809D01*
X138959328Y-77245538D01*
X139066992Y-77297387D01*
X139066993Y-77297387D01*
X139066996Y-77297389D01*
X139310542Y-77372513D01*
X139562565Y-77410500D01*
X139817435Y-77410500D01*
X140069458Y-77372513D01*
X140313004Y-77297389D01*
X140542634Y-77186805D01*
X140753217Y-77043232D01*
X140794860Y-77004592D01*
X140857388Y-76973425D01*
X140926845Y-76981011D01*
X140981174Y-77024944D01*
X141003127Y-77091275D01*
X141003199Y-77095630D01*
X140992154Y-87014396D01*
X140972395Y-87081414D01*
X140919540Y-87127110D01*
X140850370Y-87136976D01*
X140786847Y-87107880D01*
X140783813Y-87105157D01*
X140777716Y-87099500D01*
X140753217Y-87076768D01*
X140542634Y-86933195D01*
X140542630Y-86933193D01*
X140542627Y-86933191D01*
X140542626Y-86933190D01*
X140313006Y-86822612D01*
X140313008Y-86822612D01*
X140069466Y-86747489D01*
X140069462Y-86747488D01*
X140069458Y-86747487D01*
X139948231Y-86729214D01*
X139817440Y-86709500D01*
X139817435Y-86709500D01*
X139562565Y-86709500D01*
X139562559Y-86709500D01*
X139406642Y-86733002D01*
X139310542Y-86747487D01*
X139310539Y-86747488D01*
X139310533Y-86747489D01*
X139066992Y-86822612D01*
X138837373Y-86933190D01*
X138837372Y-86933191D01*
X138626782Y-87076768D01*
X138439952Y-87250121D01*
X138439950Y-87250123D01*
X138281043Y-87449385D01*
X138232042Y-87534257D01*
X138181474Y-87582472D01*
X138112867Y-87595694D01*
X138048003Y-87569726D01*
X138025701Y-87546983D01*
X137980979Y-87487761D01*
X137816562Y-87337876D01*
X137816560Y-87337874D01*
X137627404Y-87220754D01*
X137627398Y-87220752D01*
X137419940Y-87140382D01*
X137201243Y-87099500D01*
X136978757Y-87099500D01*
X136760060Y-87140382D01*
X136661416Y-87178597D01*
X136552601Y-87220752D01*
X136552595Y-87220754D01*
X136363439Y-87337874D01*
X136363437Y-87337876D01*
X136199020Y-87487761D01*
X136064943Y-87665308D01*
X136064938Y-87665316D01*
X135965775Y-87864461D01*
X135965769Y-87864476D01*
X135904885Y-88078462D01*
X135904884Y-88078464D01*
X135884357Y-88299999D01*
X135884357Y-88300000D01*
X135904884Y-88521535D01*
X135904885Y-88521537D01*
X135965769Y-88735523D01*
X135965775Y-88735538D01*
X135985844Y-88775841D01*
X135998105Y-88844627D01*
X135971232Y-88909122D01*
X135913756Y-88948849D01*
X135874968Y-88955113D01*
X133223960Y-88957762D01*
X133156901Y-88938144D01*
X133111093Y-88885386D01*
X133101081Y-88816238D01*
X133112837Y-88778489D01*
X133134222Y-88735542D01*
X133134224Y-88735538D01*
X133134229Y-88735528D01*
X133195115Y-88521536D01*
X133215643Y-88300000D01*
X133195115Y-88078464D01*
X133134229Y-87864472D01*
X133109389Y-87814586D01*
X133035061Y-87665316D01*
X133035056Y-87665308D01*
X132900979Y-87487761D01*
X132736562Y-87337876D01*
X132736560Y-87337874D01*
X132547404Y-87220754D01*
X132547398Y-87220752D01*
X132339940Y-87140382D01*
X132121243Y-87099500D01*
X131898757Y-87099500D01*
X131680060Y-87140382D01*
X131581416Y-87178597D01*
X131472601Y-87220752D01*
X131472595Y-87220754D01*
X131283439Y-87337874D01*
X131283437Y-87337876D01*
X131119019Y-87487762D01*
X131119018Y-87487764D01*
X131115369Y-87492596D01*
X131059257Y-87534227D01*
X130989544Y-87538913D01*
X130932883Y-87509498D01*
X130914342Y-87492596D01*
X130766562Y-87357876D01*
X130766560Y-87357874D01*
X130577404Y-87240754D01*
X130577398Y-87240752D01*
X130369940Y-87160382D01*
X130151243Y-87119500D01*
X129928757Y-87119500D01*
X129710060Y-87160382D01*
X129663042Y-87178597D01*
X129502601Y-87240752D01*
X129502595Y-87240754D01*
X129313439Y-87357874D01*
X129313437Y-87357876D01*
X129149020Y-87507761D01*
X129014943Y-87685308D01*
X129014938Y-87685316D01*
X128915775Y-87884461D01*
X128915769Y-87884476D01*
X128854885Y-88098462D01*
X128854884Y-88098464D01*
X128834357Y-88319999D01*
X128834357Y-88320000D01*
X128854884Y-88541535D01*
X128854885Y-88541537D01*
X128915769Y-88755523D01*
X128915777Y-88755543D01*
X128929397Y-88782895D01*
X128941658Y-88851680D01*
X128914785Y-88916175D01*
X128857309Y-88955902D01*
X128818521Y-88962166D01*
X126180413Y-88964803D01*
X126113354Y-88945185D01*
X126067546Y-88892427D01*
X126057534Y-88823279D01*
X126069290Y-88785529D01*
X126070602Y-88782895D01*
X126084229Y-88755528D01*
X126145115Y-88541536D01*
X126165643Y-88320000D01*
X126145115Y-88098464D01*
X126084229Y-87884472D01*
X126084224Y-87884461D01*
X125985061Y-87685316D01*
X125985056Y-87685308D01*
X125850979Y-87507761D01*
X125686562Y-87357876D01*
X125686560Y-87357874D01*
X125497404Y-87240754D01*
X125497398Y-87240752D01*
X125289940Y-87160382D01*
X125071243Y-87119500D01*
X124848757Y-87119500D01*
X124630060Y-87160382D01*
X124583042Y-87178597D01*
X124422601Y-87240752D01*
X124422595Y-87240754D01*
X124233439Y-87357874D01*
X124233437Y-87357876D01*
X124069020Y-87507761D01*
X123934943Y-87685308D01*
X123934938Y-87685316D01*
X123835775Y-87884461D01*
X123835769Y-87884476D01*
X123774885Y-88098462D01*
X123774884Y-88098464D01*
X123754357Y-88319999D01*
X123754357Y-88320000D01*
X123774884Y-88541535D01*
X123774885Y-88541537D01*
X123835769Y-88755523D01*
X123835777Y-88755543D01*
X123851925Y-88787972D01*
X123864186Y-88856757D01*
X123837313Y-88921252D01*
X123779837Y-88960979D01*
X123741049Y-88967243D01*
X120772644Y-88970209D01*
X120705585Y-88950591D01*
X120659777Y-88897833D01*
X120649765Y-88828685D01*
X120670944Y-88775088D01*
X120704035Y-88727830D01*
X120803903Y-88513663D01*
X120865063Y-88285408D01*
X120885659Y-88050000D01*
X120865063Y-87814592D01*
X120803903Y-87586337D01*
X120704035Y-87372171D01*
X120698425Y-87364158D01*
X120568494Y-87178597D01*
X120401402Y-87011506D01*
X120401396Y-87011501D01*
X120215842Y-86881575D01*
X120172217Y-86826998D01*
X120165023Y-86757500D01*
X120196546Y-86695145D01*
X120215842Y-86678425D01*
X120238026Y-86662891D01*
X120401401Y-86548495D01*
X120568495Y-86381401D01*
X120704035Y-86187830D01*
X120803903Y-85973663D01*
X120865063Y-85745408D01*
X120885659Y-85510000D01*
X120865063Y-85274592D01*
X120803903Y-85046337D01*
X120726338Y-84880000D01*
X127669464Y-84880000D01*
X127689564Y-85096918D01*
X127689564Y-85096920D01*
X127689565Y-85096923D01*
X127749183Y-85306459D01*
X127846288Y-85501472D01*
X127977573Y-85675322D01*
X128138568Y-85822088D01*
X128138575Y-85822092D01*
X128138576Y-85822093D01*
X128323786Y-85936770D01*
X128323792Y-85936773D01*
X128346664Y-85945633D01*
X128526931Y-86015470D01*
X128741074Y-86055500D01*
X128741076Y-86055500D01*
X128958924Y-86055500D01*
X128958926Y-86055500D01*
X129173069Y-86015470D01*
X129376210Y-85936772D01*
X129561432Y-85822088D01*
X129722427Y-85675322D01*
X129751047Y-85637422D01*
X129807153Y-85595787D01*
X129876865Y-85591094D01*
X129938048Y-85624836D01*
X129948946Y-85637414D01*
X129977573Y-85675322D01*
X130138568Y-85822088D01*
X130138575Y-85822092D01*
X130138576Y-85822093D01*
X130323786Y-85936770D01*
X130323792Y-85936773D01*
X130346664Y-85945633D01*
X130526931Y-86015470D01*
X130741074Y-86055500D01*
X130741076Y-86055500D01*
X130958924Y-86055500D01*
X130958926Y-86055500D01*
X131173069Y-86015470D01*
X131376210Y-85936772D01*
X131561432Y-85822088D01*
X131722427Y-85675322D01*
X131751047Y-85637422D01*
X131807153Y-85595787D01*
X131876865Y-85591094D01*
X131938048Y-85624836D01*
X131948946Y-85637414D01*
X131977573Y-85675322D01*
X132138568Y-85822088D01*
X132138575Y-85822092D01*
X132138576Y-85822093D01*
X132323786Y-85936770D01*
X132323792Y-85936773D01*
X132346664Y-85945633D01*
X132526931Y-86015470D01*
X132741074Y-86055500D01*
X132741076Y-86055500D01*
X132958924Y-86055500D01*
X132958926Y-86055500D01*
X133173069Y-86015470D01*
X133376210Y-85936772D01*
X133561432Y-85822088D01*
X133722427Y-85675322D01*
X133751047Y-85637422D01*
X133807153Y-85595787D01*
X133876865Y-85591094D01*
X133938048Y-85624836D01*
X133948946Y-85637414D01*
X133977573Y-85675322D01*
X134138568Y-85822088D01*
X134138575Y-85822092D01*
X134138576Y-85822093D01*
X134323786Y-85936770D01*
X134323792Y-85936773D01*
X134346664Y-85945633D01*
X134526931Y-86015470D01*
X134741074Y-86055500D01*
X134741076Y-86055500D01*
X134958924Y-86055500D01*
X134958926Y-86055500D01*
X135173069Y-86015470D01*
X135376210Y-85936772D01*
X135561432Y-85822088D01*
X135722427Y-85675322D01*
X135853712Y-85501472D01*
X135950817Y-85306459D01*
X136010435Y-85096923D01*
X136030536Y-84880000D01*
X136027149Y-84843454D01*
X136010435Y-84663081D01*
X136010435Y-84663077D01*
X135950817Y-84453541D01*
X135853712Y-84258528D01*
X135772251Y-84150656D01*
X135747560Y-84085297D01*
X135762125Y-84016962D01*
X135796895Y-83976665D01*
X135848661Y-83937912D01*
X135882546Y-83912546D01*
X135968796Y-83797331D01*
X136019091Y-83662483D01*
X136025500Y-83602873D01*
X136025499Y-82157128D01*
X136019091Y-82097517D01*
X136014302Y-82084678D01*
X135968797Y-81962671D01*
X135968793Y-81962664D01*
X135882547Y-81847455D01*
X135882544Y-81847452D01*
X135767335Y-81761206D01*
X135767328Y-81761202D01*
X135632482Y-81710908D01*
X135632483Y-81710908D01*
X135572883Y-81704501D01*
X135572881Y-81704500D01*
X135572873Y-81704500D01*
X135572864Y-81704500D01*
X134127129Y-81704500D01*
X134127123Y-81704501D01*
X134067516Y-81710908D01*
X133932671Y-81761202D01*
X133932664Y-81761206D01*
X133817455Y-81847452D01*
X133755214Y-81930594D01*
X133699279Y-81972465D01*
X133629588Y-81977448D01*
X133572411Y-81947920D01*
X133561434Y-81937913D01*
X133561429Y-81937910D01*
X133376213Y-81823229D01*
X133376207Y-81823226D01*
X133291113Y-81790260D01*
X133173069Y-81744530D01*
X132958926Y-81704500D01*
X132741074Y-81704500D01*
X132526931Y-81744530D01*
X132483896Y-81761202D01*
X132323792Y-81823226D01*
X132323786Y-81823229D01*
X132138576Y-81937906D01*
X132138566Y-81937913D01*
X131977573Y-82084676D01*
X131948953Y-82122576D01*
X131892844Y-82164211D01*
X131823132Y-82168902D01*
X131761950Y-82135159D01*
X131751047Y-82122576D01*
X131722426Y-82084676D01*
X131561433Y-81937913D01*
X131561423Y-81937906D01*
X131376213Y-81823229D01*
X131376207Y-81823226D01*
X131291113Y-81790260D01*
X131173069Y-81744530D01*
X130958926Y-81704500D01*
X130741074Y-81704500D01*
X130526931Y-81744530D01*
X130483896Y-81761202D01*
X130323792Y-81823226D01*
X130323786Y-81823229D01*
X130138576Y-81937906D01*
X130138566Y-81937913D01*
X129977573Y-82084676D01*
X129948953Y-82122576D01*
X129892844Y-82164211D01*
X129823132Y-82168902D01*
X129761950Y-82135159D01*
X129751047Y-82122576D01*
X129722426Y-82084676D01*
X129561433Y-81937913D01*
X129561423Y-81937906D01*
X129376213Y-81823229D01*
X129376207Y-81823226D01*
X129291113Y-81790260D01*
X129173069Y-81744530D01*
X128958926Y-81704500D01*
X128741074Y-81704500D01*
X128526931Y-81744530D01*
X128483896Y-81761202D01*
X128323792Y-81823226D01*
X128323786Y-81823229D01*
X128138576Y-81937906D01*
X128138566Y-81937913D01*
X127977574Y-82084676D01*
X127846288Y-82258527D01*
X127749184Y-82453537D01*
X127689564Y-82663081D01*
X127669464Y-82879999D01*
X127669464Y-82880000D01*
X127689564Y-83096918D01*
X127749184Y-83306462D01*
X127846288Y-83501472D01*
X127977574Y-83675324D01*
X128101572Y-83788363D01*
X128137854Y-83848074D01*
X128136093Y-83917922D01*
X128101572Y-83971637D01*
X127977574Y-84084675D01*
X127846288Y-84258527D01*
X127749184Y-84453537D01*
X127689564Y-84663081D01*
X127669464Y-84879999D01*
X127669464Y-84880000D01*
X120726338Y-84880000D01*
X120704035Y-84832171D01*
X120698425Y-84824158D01*
X120568494Y-84638597D01*
X120401402Y-84471506D01*
X120401395Y-84471501D01*
X120207834Y-84335967D01*
X120207830Y-84335965D01*
X120183814Y-84324766D01*
X119993663Y-84236097D01*
X119993659Y-84236096D01*
X119993655Y-84236094D01*
X119765413Y-84174938D01*
X119765403Y-84174936D01*
X119530001Y-84154341D01*
X119529999Y-84154341D01*
X119294596Y-84174936D01*
X119294586Y-84174938D01*
X119066344Y-84236094D01*
X119066335Y-84236098D01*
X118852171Y-84335964D01*
X118852169Y-84335965D01*
X118658597Y-84471505D01*
X118491505Y-84638597D01*
X118361575Y-84824158D01*
X118306998Y-84867783D01*
X118237500Y-84874977D01*
X118175145Y-84843454D01*
X118158425Y-84824158D01*
X118028494Y-84638597D01*
X117861402Y-84471506D01*
X117861395Y-84471501D01*
X117667834Y-84335967D01*
X117667830Y-84335965D01*
X117643814Y-84324766D01*
X117453663Y-84236097D01*
X117453659Y-84236096D01*
X117453655Y-84236094D01*
X117225413Y-84174938D01*
X117225403Y-84174936D01*
X116990001Y-84154341D01*
X116989999Y-84154341D01*
X116754596Y-84174936D01*
X116754586Y-84174938D01*
X116526344Y-84236094D01*
X116526335Y-84236098D01*
X116312171Y-84335964D01*
X116312169Y-84335965D01*
X116118597Y-84471505D01*
X115951505Y-84638597D01*
X115821575Y-84824158D01*
X115766998Y-84867783D01*
X115697500Y-84874977D01*
X115635145Y-84843454D01*
X115618425Y-84824158D01*
X115488494Y-84638597D01*
X115321402Y-84471506D01*
X115321395Y-84471501D01*
X115127834Y-84335967D01*
X115127830Y-84335965D01*
X115103814Y-84324766D01*
X114913663Y-84236097D01*
X114913659Y-84236096D01*
X114913655Y-84236094D01*
X114685413Y-84174938D01*
X114685403Y-84174936D01*
X114450001Y-84154341D01*
X114449999Y-84154341D01*
X114214596Y-84174936D01*
X114214586Y-84174938D01*
X113986344Y-84236094D01*
X113986335Y-84236098D01*
X113772171Y-84335964D01*
X113772169Y-84335965D01*
X113578597Y-84471505D01*
X113411505Y-84638597D01*
X113281575Y-84824158D01*
X113226998Y-84867783D01*
X113157500Y-84874977D01*
X113095145Y-84843454D01*
X113078425Y-84824158D01*
X112948494Y-84638597D01*
X112781402Y-84471506D01*
X112781395Y-84471501D01*
X112587834Y-84335967D01*
X112587830Y-84335965D01*
X112563814Y-84324766D01*
X112373663Y-84236097D01*
X112373659Y-84236096D01*
X112373655Y-84236094D01*
X112145413Y-84174938D01*
X112145403Y-84174936D01*
X111910001Y-84154341D01*
X111909999Y-84154341D01*
X111674596Y-84174936D01*
X111674586Y-84174938D01*
X111446344Y-84236094D01*
X111446335Y-84236098D01*
X111232171Y-84335964D01*
X111182991Y-84370400D01*
X111116784Y-84392727D01*
X111049017Y-84375715D01*
X111001205Y-84324766D01*
X110987869Y-84268620D01*
X110998156Y-78110000D01*
X124254540Y-78110000D01*
X124274326Y-78298256D01*
X124274327Y-78298259D01*
X124332818Y-78478277D01*
X124332821Y-78478284D01*
X124427467Y-78642216D01*
X124554129Y-78782888D01*
X124707265Y-78894148D01*
X124707270Y-78894151D01*
X124880192Y-78971142D01*
X124880197Y-78971144D01*
X125065354Y-79010500D01*
X125065355Y-79010500D01*
X125254644Y-79010500D01*
X125254646Y-79010500D01*
X125439803Y-78971144D01*
X125612730Y-78894151D01*
X125765871Y-78782888D01*
X125892533Y-78642216D01*
X125987179Y-78478284D01*
X126045674Y-78298256D01*
X126065460Y-78110000D01*
X126045674Y-77921744D01*
X125987179Y-77741716D01*
X125892533Y-77577784D01*
X125765871Y-77437112D01*
X125729243Y-77410500D01*
X125612734Y-77325851D01*
X125612729Y-77325848D01*
X125439807Y-77248857D01*
X125439802Y-77248855D01*
X125294001Y-77217865D01*
X125254646Y-77209500D01*
X125065354Y-77209500D01*
X125032897Y-77216398D01*
X124880197Y-77248855D01*
X124880192Y-77248857D01*
X124707270Y-77325848D01*
X124707265Y-77325851D01*
X124554129Y-77437111D01*
X124427466Y-77577785D01*
X124332821Y-77741715D01*
X124332818Y-77741722D01*
X124274327Y-77921740D01*
X124274326Y-77921744D01*
X124254540Y-78110000D01*
X110998156Y-78110000D01*
X111001814Y-75920001D01*
X127337183Y-75920001D01*
X127357015Y-76146686D01*
X127357017Y-76146697D01*
X127415909Y-76366488D01*
X127415912Y-76366497D01*
X127512082Y-76572732D01*
X127512083Y-76572734D01*
X127642605Y-76759141D01*
X127803509Y-76920045D01*
X127803512Y-76920047D01*
X127989917Y-77050568D01*
X128196155Y-77146739D01*
X128415959Y-77205635D01*
X128577881Y-77219801D01*
X128642649Y-77225468D01*
X128642651Y-77225468D01*
X128642653Y-77225468D01*
X128699324Y-77220509D01*
X128869343Y-77205635D01*
X129089147Y-77146739D01*
X129295385Y-77050568D01*
X129481790Y-76920047D01*
X129642698Y-76759139D01*
X129773219Y-76572734D01*
X129869390Y-76366496D01*
X129928286Y-76146692D01*
X129948119Y-75920000D01*
X129928286Y-75693308D01*
X129869390Y-75473504D01*
X129773219Y-75267266D01*
X129642698Y-75080861D01*
X129642696Y-75080858D01*
X129481792Y-74919954D01*
X129295385Y-74789432D01*
X129295383Y-74789431D01*
X129089148Y-74693261D01*
X129089139Y-74693258D01*
X128869348Y-74634366D01*
X128869344Y-74634365D01*
X128869343Y-74634365D01*
X128869342Y-74634364D01*
X128869337Y-74634364D01*
X128642653Y-74614532D01*
X128642649Y-74614532D01*
X128415964Y-74634364D01*
X128415953Y-74634366D01*
X128196162Y-74693258D01*
X128196153Y-74693261D01*
X127989918Y-74789431D01*
X127989916Y-74789432D01*
X127803509Y-74919954D01*
X127642605Y-75080858D01*
X127512083Y-75267265D01*
X127512082Y-75267267D01*
X127415912Y-75473502D01*
X127415909Y-75473511D01*
X127357017Y-75693302D01*
X127357015Y-75693313D01*
X127337183Y-75919998D01*
X127337183Y-75920001D01*
X111001814Y-75920001D01*
X111009793Y-71143667D01*
X111029590Y-71076662D01*
X111082470Y-71030996D01*
X111133667Y-71019876D01*
X140885737Y-70990124D01*
X140952796Y-71009742D01*
G37*
%TD.AperFunction*%
%TD*%
M02*
