%TF.GenerationSoftware,KiCad,Pcbnew,7.0.10*%
%TF.CreationDate,2024-01-05T17:35:28-06:00*%
%TF.ProjectId,USB-CV1,5553422d-4356-4312-9e6b-696361645f70,rev?*%
%TF.SameCoordinates,Original*%
%TF.FileFunction,Soldermask,Top*%
%TF.FilePolarity,Negative*%
%FSLAX46Y46*%
G04 Gerber Fmt 4.6, Leading zero omitted, Abs format (unit mm)*
G04 Created by KiCad (PCBNEW 7.0.10) date 2024-01-05 17:35:28*
%MOMM*%
%LPD*%
G01*
G04 APERTURE LIST*
G04 Aperture macros list*
%AMRoundRect*
0 Rectangle with rounded corners*
0 $1 Rounding radius*
0 $2 $3 $4 $5 $6 $7 $8 $9 X,Y pos of 4 corners*
0 Add a 4 corners polygon primitive as box body*
4,1,4,$2,$3,$4,$5,$6,$7,$8,$9,$2,$3,0*
0 Add four circle primitives for the rounded corners*
1,1,$1+$1,$2,$3*
1,1,$1+$1,$4,$5*
1,1,$1+$1,$6,$7*
1,1,$1+$1,$8,$9*
0 Add four rect primitives between the rounded corners*
20,1,$1+$1,$2,$3,$4,$5,0*
20,1,$1+$1,$4,$5,$6,$7,0*
20,1,$1+$1,$6,$7,$8,$9,0*
20,1,$1+$1,$8,$9,$2,$3,0*%
G04 Aperture macros list end*
%ADD10R,0.965200X0.939800*%
%ADD11R,1.700000X1.700000*%
%ADD12O,1.700000X1.700000*%
%ADD13R,1.070699X0.304800*%
%ADD14C,1.400000*%
%ADD15O,1.400000X1.400000*%
%ADD16RoundRect,0.250000X-0.400000X-1.450000X0.400000X-1.450000X0.400000X1.450000X-0.400000X1.450000X0*%
%ADD17R,1.350000X1.350000*%
%ADD18O,1.350000X1.350000*%
%ADD19R,1.600000X1.600000*%
%ADD20C,1.600000*%
%ADD21C,2.400000*%
%ADD22O,2.400000X2.400000*%
G04 APERTURE END LIST*
D10*
%TO.C,R3*%
X136479300Y-80190000D03*
X134980700Y-80190000D03*
%TD*%
D11*
%TO.C,J2*%
X122070000Y-85510000D03*
D12*
X122070000Y-88050000D03*
X119530000Y-85510000D03*
X119530000Y-88050000D03*
X116990000Y-85510000D03*
X116990000Y-88050000D03*
X114450000Y-85510000D03*
X114450000Y-88050000D03*
X111910000Y-85510000D03*
X111910000Y-88050000D03*
%TD*%
D13*
%TO.C,U2*%
X125558451Y-81259999D03*
X125558451Y-80610000D03*
X125558451Y-79960001D03*
X123141549Y-79960001D03*
X123141549Y-81259999D03*
%TD*%
D14*
%TO.C,R2*%
X124960000Y-88320000D03*
D15*
X130040000Y-88320000D03*
%TD*%
D16*
%TO.C,F1*%
X136395000Y-72220000D03*
X140845000Y-72220000D03*
%TD*%
D17*
%TO.C,J1*%
X134850000Y-82880000D03*
D18*
X134850000Y-84880000D03*
X132850000Y-82880000D03*
X132850000Y-84880000D03*
X130850000Y-82880000D03*
X130850000Y-84880000D03*
X128850000Y-82880000D03*
X128850000Y-84880000D03*
%TD*%
D19*
%TO.C,C1*%
X133642651Y-75920000D03*
D20*
X128642651Y-75920000D03*
%TD*%
D13*
%TO.C,U1*%
X124198451Y-77009999D03*
X124198451Y-76360000D03*
X124198451Y-75710001D03*
X121781549Y-75710001D03*
X121781549Y-77009999D03*
%TD*%
D14*
%TO.C,R1*%
X137090000Y-88300000D03*
D15*
X132010000Y-88300000D03*
%TD*%
D21*
%TO.C,FB1*%
X139690000Y-88410000D03*
D22*
X139690000Y-75710000D03*
%TD*%
M02*
