%TF.GenerationSoftware,KiCad,Pcbnew,7.0.7*%
%TF.CreationDate,2023-10-14T22:56:05-05:00*%
%TF.ProjectId,USB-CV1,5553422d-4356-4312-9e6b-696361645f70,rev?*%
%TF.SameCoordinates,Original*%
%TF.FileFunction,Copper,L1,Top*%
%TF.FilePolarity,Positive*%
%FSLAX46Y46*%
G04 Gerber Fmt 4.6, Leading zero omitted, Abs format (unit mm)*
G04 Created by KiCad (PCBNEW 7.0.7) date 2023-10-14 22:56:05*
%MOMM*%
%LPD*%
G01*
G04 APERTURE LIST*
G04 Aperture macros list*
%AMRoundRect*
0 Rectangle with rounded corners*
0 $1 Rounding radius*
0 $2 $3 $4 $5 $6 $7 $8 $9 X,Y pos of 4 corners*
0 Add a 4 corners polygon primitive as box body*
4,1,4,$2,$3,$4,$5,$6,$7,$8,$9,$2,$3,0*
0 Add four circle primitives for the rounded corners*
1,1,$1+$1,$2,$3*
1,1,$1+$1,$4,$5*
1,1,$1+$1,$6,$7*
1,1,$1+$1,$8,$9*
0 Add four rect primitives between the rounded corners*
20,1,$1+$1,$2,$3,$4,$5,0*
20,1,$1+$1,$4,$5,$6,$7,0*
20,1,$1+$1,$6,$7,$8,$9,0*
20,1,$1+$1,$8,$9,$2,$3,0*%
G04 Aperture macros list end*
%TA.AperFunction,SMDPad,CuDef*%
%ADD10R,0.965200X0.939800*%
%TD*%
%TA.AperFunction,ComponentPad*%
%ADD11R,1.700000X1.700000*%
%TD*%
%TA.AperFunction,ComponentPad*%
%ADD12O,1.700000X1.700000*%
%TD*%
%TA.AperFunction,SMDPad,CuDef*%
%ADD13R,1.070699X0.304800*%
%TD*%
%TA.AperFunction,ComponentPad*%
%ADD14C,1.400000*%
%TD*%
%TA.AperFunction,ComponentPad*%
%ADD15O,1.400000X1.400000*%
%TD*%
%TA.AperFunction,SMDPad,CuDef*%
%ADD16RoundRect,0.250000X-0.400000X-1.450000X0.400000X-1.450000X0.400000X1.450000X-0.400000X1.450000X0*%
%TD*%
%TA.AperFunction,ComponentPad*%
%ADD17R,1.350000X1.350000*%
%TD*%
%TA.AperFunction,ComponentPad*%
%ADD18O,1.350000X1.350000*%
%TD*%
%TA.AperFunction,ComponentPad*%
%ADD19R,1.600000X1.600000*%
%TD*%
%TA.AperFunction,ComponentPad*%
%ADD20C,1.600000*%
%TD*%
%TA.AperFunction,ComponentPad*%
%ADD21C,2.400000*%
%TD*%
%TA.AperFunction,ComponentPad*%
%ADD22O,2.400000X2.400000*%
%TD*%
%TA.AperFunction,ViaPad*%
%ADD23C,0.800000*%
%TD*%
%TA.AperFunction,Conductor*%
%ADD24C,0.200000*%
%TD*%
%TA.AperFunction,Conductor*%
%ADD25C,1.000000*%
%TD*%
%TA.AperFunction,Conductor*%
%ADD26C,0.250000*%
%TD*%
%TA.AperFunction,Conductor*%
%ADD27C,0.130000*%
%TD*%
G04 APERTURE END LIST*
D10*
%TO.P,R3,1*%
%TO.N,/VBUS*%
X136479300Y-80190000D03*
%TO.P,R3,2*%
%TO.N,GND*%
X134980700Y-80190000D03*
%TD*%
D11*
%TO.P,J2,1,Pin_1*%
%TO.N,/VBUS*%
X122070000Y-85510000D03*
D12*
%TO.P,J2,2,Pin_2*%
X122070000Y-88050000D03*
%TO.P,J2,3,Pin_3*%
%TO.N,/D2- OUT*%
X119530000Y-85510000D03*
%TO.P,J2,4,Pin_4*%
%TO.N,/D3- OUT*%
X119530000Y-88050000D03*
%TO.P,J2,5,Pin_5*%
%TO.N,/D2+ OUT*%
X116990000Y-85510000D03*
%TO.P,J2,6,Pin_6*%
%TO.N,/D3+ OUT*%
X116990000Y-88050000D03*
%TO.P,J2,7,Pin_7*%
%TO.N,GND*%
X114450000Y-85510000D03*
%TO.P,J2,8,Pin_8*%
X114450000Y-88050000D03*
%TO.P,J2,9,Pin_9*%
%TO.N,unconnected-(J2-Pin_9-Pad9)*%
X111910000Y-85510000D03*
%TO.P,J2,10,Pin_10*%
%TO.N,unconnected-(J2-Pin_10-Pad10)*%
X111910000Y-88050000D03*
%TD*%
D13*
%TO.P,U2,1,D+_IN*%
%TO.N,/D3+ IN*%
X125558451Y-81259999D03*
%TO.P,U2,2,GND*%
%TO.N,GND*%
X125558451Y-80610000D03*
%TO.P,U2,3,D-_IN*%
%TO.N,/D3- IN*%
X125558451Y-79960001D03*
%TO.P,U2,4,D-_OUT*%
%TO.N,/D3- OUT*%
X123141549Y-79960001D03*
%TO.P,U2,5,D+_OUT*%
%TO.N,/D3+ OUT*%
X123141549Y-81259999D03*
%TD*%
D14*
%TO.P,R2,1*%
%TO.N,/OC3*%
X124960000Y-88320000D03*
D15*
%TO.P,R2,2*%
%TO.N,+5V*%
X130040000Y-88320000D03*
%TD*%
D16*
%TO.P,F1,1*%
%TO.N,/VBUS*%
X136395000Y-72220000D03*
%TO.P,F1,2*%
%TO.N,Net-(F1-Pad2)*%
X140845000Y-72220000D03*
%TD*%
D17*
%TO.P,J1,1,Pin_1*%
%TO.N,+5V*%
X134850000Y-82880000D03*
D18*
%TO.P,J1,2,Pin_2*%
%TO.N,GND*%
X134850000Y-84880000D03*
%TO.P,J1,3,Pin_3*%
%TO.N,/D2- IN*%
X132850000Y-82880000D03*
%TO.P,J1,4,Pin_4*%
%TO.N,/D2+ IN*%
X132850000Y-84880000D03*
%TO.P,J1,5,Pin_5*%
%TO.N,/D3- IN*%
X130850000Y-82880000D03*
%TO.P,J1,6,Pin_6*%
%TO.N,/D3+ IN*%
X130850000Y-84880000D03*
%TO.P,J1,7,Pin_7*%
%TO.N,/OC2*%
X128850000Y-82880000D03*
%TO.P,J1,8,Pin_8*%
%TO.N,/OC3*%
X128850000Y-84880000D03*
%TD*%
D19*
%TO.P,C1,1*%
%TO.N,/VBUS*%
X133642651Y-75920000D03*
D20*
%TO.P,C1,2*%
%TO.N,GND*%
X128642651Y-75920000D03*
%TD*%
D13*
%TO.P,U1,1,D+_IN*%
%TO.N,/D2+ IN*%
X124198451Y-77009999D03*
%TO.P,U1,2,GND*%
%TO.N,GND*%
X124198451Y-76360000D03*
%TO.P,U1,3,D-_IN*%
%TO.N,/D2- IN*%
X124198451Y-75710001D03*
%TO.P,U1,4,D-_OUT*%
%TO.N,/D2- OUT*%
X121781549Y-75710001D03*
%TO.P,U1,5,D+_OUT*%
%TO.N,/D2+ OUT*%
X121781549Y-77009999D03*
%TD*%
D14*
%TO.P,R1,1*%
%TO.N,+5V*%
X137090000Y-88300000D03*
D15*
%TO.P,R1,2*%
%TO.N,/OC2*%
X132010000Y-88300000D03*
%TD*%
D21*
%TO.P,FB1,1*%
%TO.N,+5V*%
X139690000Y-88410000D03*
D22*
%TO.P,FB1,2*%
%TO.N,Net-(F1-Pad2)*%
X139690000Y-75710000D03*
%TD*%
D23*
%TO.N,GND*%
X125160000Y-78110000D03*
%TD*%
D24*
%TO.N,GND*%
X124860000Y-80610000D02*
X125558451Y-80610000D01*
D25*
X134980700Y-80190000D02*
X134980700Y-78760700D01*
D24*
X124320000Y-78950000D02*
X124320000Y-80070000D01*
X123480000Y-76360000D02*
X124198451Y-76360000D01*
X123680000Y-78110000D02*
X123020000Y-77450000D01*
D26*
X130480000Y-75910000D02*
X130470000Y-75920000D01*
D24*
X125160000Y-78110000D02*
X124320000Y-78950000D01*
D25*
X134210000Y-77990000D02*
X132560000Y-77990000D01*
D24*
X123020000Y-76820000D02*
X123480000Y-76360000D01*
D25*
X132560000Y-77990000D02*
X130480000Y-75910000D01*
X130470000Y-75920000D02*
X128642651Y-75920000D01*
D24*
X125160000Y-78110000D02*
X123680000Y-78110000D01*
D25*
X134980700Y-78760700D02*
X134210000Y-77990000D01*
D27*
X125528451Y-80640000D02*
X125558451Y-80610000D01*
D24*
X124320000Y-80070000D02*
X124860000Y-80610000D01*
X123020000Y-77450000D02*
X123020000Y-76820000D01*
D25*
%TO.N,Net-(F1-Pad2)*%
X140900000Y-74500000D02*
X140900000Y-72275000D01*
D26*
X139690000Y-75710000D02*
X139690000Y-74880000D01*
D25*
X139690000Y-75710000D02*
X140900000Y-74500000D01*
D26*
X140900000Y-72275000D02*
X140845000Y-72220000D01*
D27*
%TO.N,+5V*%
X136580000Y-87000000D02*
X137090000Y-87510000D01*
D25*
X134850000Y-82880000D02*
X138490000Y-82880000D01*
D27*
X136580000Y-87000000D02*
X130650000Y-87000000D01*
X137090000Y-88300000D02*
X139580000Y-88300000D01*
X139580000Y-88300000D02*
X139690000Y-88410000D01*
D25*
X139690000Y-84140000D02*
X139690000Y-88410000D01*
D27*
X130650000Y-87000000D02*
X130040000Y-87610000D01*
X130040000Y-88320000D02*
X130040000Y-87610000D01*
D26*
X139720000Y-84110000D02*
X139690000Y-84140000D01*
D25*
X138490000Y-82880000D02*
X139720000Y-84110000D01*
D27*
X137090000Y-87510000D02*
X137090000Y-88300000D01*
%TO.N,/D2- IN*%
X126060001Y-76134265D02*
X125953934Y-76240331D01*
X129870000Y-77500000D02*
X131010000Y-78640000D01*
X127850000Y-77500000D02*
X129870000Y-77500000D01*
X131010000Y-81040000D02*
X132850000Y-82880000D01*
X126908529Y-76558529D02*
X126908528Y-76558528D01*
X131010000Y-78640000D02*
X131010000Y-81040000D01*
X126378198Y-76664595D02*
X126484264Y-76558528D01*
X126908528Y-76558528D02*
X127850000Y-77500000D01*
X126060000Y-76134266D02*
X126060001Y-76134265D01*
X126378199Y-76664594D02*
X126378198Y-76664595D01*
X125953935Y-76664596D02*
X125953934Y-76664595D01*
X124198451Y-75710001D02*
X126060001Y-75710001D01*
X126908533Y-76558525D02*
G75*
G03*
X126484264Y-76558528I-212133J-212175D01*
G01*
X125953972Y-76240369D02*
G75*
G03*
X125953936Y-76664595I212128J-212131D01*
G01*
X125953969Y-76664560D02*
G75*
G03*
X126378198Y-76664593I212131J212060D01*
G01*
X126059967Y-76134232D02*
G75*
G03*
X126060001Y-75710001I-212067J212132D01*
G01*
%TO.N,/D2+ IN*%
X127538000Y-77758000D02*
X126789999Y-77009999D01*
X129658000Y-77758000D02*
X127538000Y-77758000D01*
X131820000Y-82400000D02*
X130730000Y-81310000D01*
X131820000Y-83850000D02*
X131820000Y-82400000D01*
X126789999Y-77009999D02*
X124198451Y-77009999D01*
X130730000Y-81310000D02*
X130730000Y-78830000D01*
X130730000Y-78830000D02*
X129658000Y-77758000D01*
X132850000Y-84880000D02*
X131820000Y-83850000D01*
%TO.N,/D3- IN*%
X127110000Y-80110000D02*
X126960000Y-79960000D01*
X127110000Y-81120000D02*
X127110000Y-80110000D01*
X129700000Y-81360000D02*
X127350000Y-81360000D01*
X130850000Y-82880000D02*
X130850000Y-82510000D01*
X127350000Y-81360000D02*
X127110000Y-81120000D01*
X126960000Y-79960000D02*
X125558451Y-79960001D01*
X130850000Y-82510000D02*
X129700000Y-81360000D01*
%TO.N,/D3+ IN*%
X129840000Y-81930000D02*
X129530000Y-81620000D01*
X130850000Y-84880000D02*
X130850000Y-84107538D01*
X127155133Y-81620000D02*
X126820000Y-81284867D01*
X129530000Y-81620000D02*
X127155133Y-81620000D01*
X129840000Y-83097538D02*
X129840000Y-81930000D01*
X130850000Y-84107538D02*
X129840000Y-83097538D01*
X126820000Y-81284867D02*
X126820000Y-81260000D01*
X126820000Y-81260000D02*
X125558451Y-81259999D01*
%TO.N,/OC2*%
X128840000Y-87040000D02*
X128840000Y-89420000D01*
X128840000Y-89420000D02*
X129060000Y-89640000D01*
X129060000Y-89640000D02*
X131790000Y-89640000D01*
X132010000Y-89420000D02*
X132010000Y-88300000D01*
D26*
X128850000Y-82880000D02*
X129150000Y-82880000D01*
D27*
X129850000Y-83580000D02*
X129850000Y-86030000D01*
X131790000Y-89640000D02*
X132010000Y-89420000D01*
X129850000Y-86030000D02*
X128840000Y-87040000D01*
X129150000Y-82880000D02*
X129850000Y-83580000D01*
%TO.N,/OC3*%
X128110000Y-88170000D02*
X127960000Y-88320000D01*
X128850000Y-84880000D02*
X128850000Y-86440000D01*
X128110000Y-87180000D02*
X128110000Y-88170000D01*
X127960000Y-88320000D02*
X124960000Y-88320000D01*
X128850000Y-86440000D02*
X128110000Y-87180000D01*
%TO.N,/D2- OUT*%
X121781549Y-75710001D02*
X120719999Y-75710001D01*
X119707025Y-79430000D02*
X120000000Y-79430000D01*
X120719999Y-75710001D02*
X120300000Y-76130000D01*
X120300000Y-79730000D02*
X120300000Y-79790692D01*
X120000000Y-77630000D02*
X119707025Y-77630000D01*
X120300000Y-84740000D02*
X119530000Y-85510000D01*
X119707025Y-78230000D02*
X120000000Y-78230000D01*
X120300000Y-79790692D02*
X120300000Y-84740000D01*
X120000000Y-78830000D02*
X119707025Y-78830000D01*
X120300000Y-77180000D02*
X120300000Y-77330000D01*
X120750000Y-76580000D02*
X120750000Y-76730000D01*
X120300000Y-79730000D02*
G75*
G03*
X120000000Y-79430000I-300000J0D01*
G01*
X120300000Y-76130000D02*
G75*
G03*
X120525000Y-76355000I225000J0D01*
G01*
X120000000Y-77630000D02*
G75*
G03*
X120300000Y-77330000I0J300000D01*
G01*
X119707025Y-77630025D02*
G75*
G03*
X119407025Y-77930000I-25J-299975D01*
G01*
X119707025Y-78830025D02*
G75*
G03*
X119407025Y-79130000I-25J-299975D01*
G01*
X120300000Y-78530000D02*
G75*
G03*
X120000000Y-78230000I-300000J0D01*
G01*
X120750000Y-76580000D02*
G75*
G03*
X120525000Y-76355000I-225000J0D01*
G01*
X119407000Y-79130000D02*
G75*
G03*
X119707025Y-79430000I300000J0D01*
G01*
X120525000Y-76955000D02*
G75*
G03*
X120300000Y-77180000I0J-225000D01*
G01*
X119407000Y-77930000D02*
G75*
G03*
X119707025Y-78230000I300000J0D01*
G01*
X120000000Y-78830000D02*
G75*
G03*
X120300000Y-78530000I0J300000D01*
G01*
X120525000Y-76955000D02*
G75*
G03*
X120750000Y-76730000I0J225000D01*
G01*
%TO.N,/D3- OUT*%
X121220000Y-80690000D02*
X121620000Y-80690000D01*
X123772000Y-83072000D02*
X123480000Y-82780000D01*
X121920000Y-80390000D02*
X122349999Y-79960001D01*
X122349999Y-79960001D02*
X123141549Y-79960001D01*
X121620000Y-81290000D02*
X121220000Y-81290000D01*
X123480000Y-82780000D02*
X122200000Y-82780000D01*
X119530000Y-89300000D02*
X119762000Y-89532000D01*
X122200000Y-82780000D02*
X121920000Y-82500000D01*
X121920000Y-82500000D02*
X121920000Y-81590000D01*
X119762000Y-89532000D02*
X123658000Y-89532000D01*
X123658000Y-89532000D02*
X123772000Y-89418000D01*
X119530000Y-88050000D02*
X119530000Y-89300000D01*
X123772000Y-89418000D02*
X123772000Y-83072000D01*
X121220000Y-80690000D02*
G75*
G03*
X120920000Y-80990000I0J-300000D01*
G01*
X121620000Y-80690000D02*
G75*
G03*
X121920000Y-80390000I0J300000D01*
G01*
X120920000Y-80990000D02*
G75*
G03*
X121220000Y-81290000I300000J0D01*
G01*
X121920000Y-81590000D02*
G75*
G03*
X121620000Y-81290000I-300000J0D01*
G01*
%TO.N,/D2+ OUT*%
X121781549Y-77009999D02*
X120930001Y-77009999D01*
X120573000Y-85942025D02*
X119705025Y-86810000D01*
X120930001Y-77009999D02*
X120573000Y-77367000D01*
X119705025Y-86810000D02*
X118290000Y-86810000D01*
X118290000Y-86810000D02*
X116990000Y-85510000D01*
X120573000Y-77367000D02*
X120573000Y-85942025D01*
%TO.N,/D3+ OUT*%
X116970000Y-89560000D02*
X116990000Y-89540000D01*
X123141549Y-81259999D02*
X122440001Y-81259999D01*
X122210000Y-82280000D02*
X122400000Y-82470000D01*
X124030000Y-82760000D02*
X124030000Y-89540000D01*
X122210000Y-81490000D02*
X122210000Y-82280000D01*
X122400000Y-82470000D02*
X123740000Y-82470000D01*
X124030000Y-89540000D02*
X123780000Y-89790000D01*
X123780000Y-89790000D02*
X117200000Y-89790000D01*
X123740000Y-82470000D02*
X124030000Y-82760000D01*
X117200000Y-89790000D02*
X116970000Y-89560000D01*
X116990000Y-89540000D02*
X116990000Y-88050000D01*
X122440001Y-81259999D02*
X122210000Y-81490000D01*
D25*
%TO.N,/VBUS*%
X133642651Y-75920000D02*
X133642651Y-73757349D01*
X133642651Y-73757349D02*
X135180000Y-72220000D01*
X136479300Y-80190000D02*
X136479300Y-76469300D01*
X135930000Y-75920000D02*
X133642651Y-75920000D01*
X136479300Y-76469300D02*
X135930000Y-75920000D01*
X135180000Y-72220000D02*
X136395000Y-72220000D01*
%TD*%
M02*
