%TF.GenerationSoftware,KiCad,Pcbnew,7.0.7*%
%TF.CreationDate,2023-10-14T22:56:05-05:00*%
%TF.ProjectId,USB-CV1,5553422d-4356-4312-9e6b-696361645f70,rev?*%
%TF.SameCoordinates,Original*%
%TF.FileFunction,Copper,L2,Inr*%
%TF.FilePolarity,Positive*%
%FSLAX46Y46*%
G04 Gerber Fmt 4.6, Leading zero omitted, Abs format (unit mm)*
G04 Created by KiCad (PCBNEW 7.0.7) date 2023-10-14 22:56:05*
%MOMM*%
%LPD*%
G01*
G04 APERTURE LIST*
%TA.AperFunction,ComponentPad*%
%ADD10R,1.700000X1.700000*%
%TD*%
%TA.AperFunction,ComponentPad*%
%ADD11O,1.700000X1.700000*%
%TD*%
%TA.AperFunction,ComponentPad*%
%ADD12C,1.400000*%
%TD*%
%TA.AperFunction,ComponentPad*%
%ADD13O,1.400000X1.400000*%
%TD*%
%TA.AperFunction,ComponentPad*%
%ADD14R,1.350000X1.350000*%
%TD*%
%TA.AperFunction,ComponentPad*%
%ADD15O,1.350000X1.350000*%
%TD*%
%TA.AperFunction,ComponentPad*%
%ADD16R,1.600000X1.600000*%
%TD*%
%TA.AperFunction,ComponentPad*%
%ADD17C,1.600000*%
%TD*%
%TA.AperFunction,ComponentPad*%
%ADD18C,2.400000*%
%TD*%
%TA.AperFunction,ComponentPad*%
%ADD19O,2.400000X2.400000*%
%TD*%
%TA.AperFunction,ViaPad*%
%ADD20C,0.800000*%
%TD*%
G04 APERTURE END LIST*
D10*
%TO.N,/VBUS*%
%TO.C,J2*%
X122070000Y-85510000D03*
D11*
X122070000Y-88050000D03*
%TO.N,/D2- OUT*%
X119530000Y-85510000D03*
%TO.N,/D3- OUT*%
X119530000Y-88050000D03*
%TO.N,/D2+ OUT*%
X116990000Y-85510000D03*
%TO.N,/D3+ OUT*%
X116990000Y-88050000D03*
%TO.N,GND*%
X114450000Y-85510000D03*
X114450000Y-88050000D03*
%TO.N,unconnected-(J2-Pin_9-Pad9)*%
X111910000Y-85510000D03*
%TO.N,unconnected-(J2-Pin_10-Pad10)*%
X111910000Y-88050000D03*
%TD*%
D12*
%TO.N,/OC3*%
%TO.C,R2*%
X124960000Y-88320000D03*
D13*
%TO.N,+5V*%
X130040000Y-88320000D03*
%TD*%
D14*
%TO.N,+5V*%
%TO.C,J1*%
X134850000Y-82880000D03*
D15*
%TO.N,GND*%
X134850000Y-84880000D03*
%TO.N,/D2- IN*%
X132850000Y-82880000D03*
%TO.N,/D2+ IN*%
X132850000Y-84880000D03*
%TO.N,/D3- IN*%
X130850000Y-82880000D03*
%TO.N,/D3+ IN*%
X130850000Y-84880000D03*
%TO.N,/OC2*%
X128850000Y-82880000D03*
%TO.N,/OC3*%
X128850000Y-84880000D03*
%TD*%
D16*
%TO.N,/VBUS*%
%TO.C,C1*%
X133642651Y-75920000D03*
D17*
%TO.N,GND*%
X128642651Y-75920000D03*
%TD*%
D12*
%TO.N,+5V*%
%TO.C,R1*%
X137090000Y-88300000D03*
D13*
%TO.N,/OC2*%
X132010000Y-88300000D03*
%TD*%
D18*
%TO.N,+5V*%
%TO.C,FB1*%
X139690000Y-88410000D03*
D19*
%TO.N,Net-(F1-Pad2)*%
X139690000Y-75710000D03*
%TD*%
D20*
%TO.N,GND*%
X125160000Y-78110000D03*
%TD*%
%TA.AperFunction,Conductor*%
%TO.N,GND*%
G36*
X140943108Y-71029685D02*
G01*
X140988863Y-71082489D01*
X141000069Y-71133931D01*
X141001839Y-74323176D01*
X140982192Y-74390227D01*
X140929413Y-74436011D01*
X140860260Y-74445993D01*
X140796688Y-74417003D01*
X140793498Y-74414143D01*
X140753221Y-74376771D01*
X140753217Y-74376768D01*
X140542634Y-74233195D01*
X140542630Y-74233193D01*
X140542627Y-74233191D01*
X140542626Y-74233190D01*
X140313006Y-74122612D01*
X140313008Y-74122612D01*
X140069466Y-74047489D01*
X140069462Y-74047488D01*
X140069458Y-74047487D01*
X139948231Y-74029214D01*
X139817440Y-74009500D01*
X139817435Y-74009500D01*
X139562565Y-74009500D01*
X139562559Y-74009500D01*
X139405609Y-74033157D01*
X139310542Y-74047487D01*
X139310538Y-74047488D01*
X139310539Y-74047488D01*
X139310533Y-74047489D01*
X139066992Y-74122612D01*
X138837373Y-74233190D01*
X138837372Y-74233191D01*
X138626782Y-74376768D01*
X138439952Y-74550121D01*
X138439950Y-74550123D01*
X138281041Y-74749388D01*
X138153608Y-74970109D01*
X138060492Y-75207362D01*
X138060490Y-75207369D01*
X138003777Y-75455845D01*
X137984732Y-75709995D01*
X137984732Y-75710004D01*
X138003777Y-75964154D01*
X138003778Y-75964157D01*
X138060492Y-76212637D01*
X138153607Y-76449888D01*
X138281041Y-76670612D01*
X138439950Y-76869877D01*
X138626783Y-77043232D01*
X138837366Y-77186805D01*
X138837371Y-77186807D01*
X138837372Y-77186808D01*
X138837373Y-77186809D01*
X138907330Y-77220498D01*
X139066992Y-77297387D01*
X139066993Y-77297387D01*
X139066996Y-77297389D01*
X139310542Y-77372513D01*
X139562565Y-77410500D01*
X139817435Y-77410500D01*
X140069458Y-77372513D01*
X140313004Y-77297389D01*
X140542634Y-77186805D01*
X140753217Y-77043232D01*
X140795040Y-77004425D01*
X140857571Y-76973258D01*
X140927027Y-76980845D01*
X140981356Y-77024778D01*
X141003308Y-77091110D01*
X141003380Y-77095256D01*
X141008899Y-87029726D01*
X140989252Y-87096776D01*
X140936473Y-87142561D01*
X140867320Y-87152543D01*
X140803748Y-87123553D01*
X140800558Y-87120694D01*
X140753217Y-87076768D01*
X140542634Y-86933195D01*
X140542630Y-86933193D01*
X140542627Y-86933191D01*
X140542626Y-86933190D01*
X140313006Y-86822612D01*
X140313008Y-86822612D01*
X140069466Y-86747489D01*
X140069462Y-86747488D01*
X140069458Y-86747487D01*
X139948231Y-86729214D01*
X139817440Y-86709500D01*
X139817435Y-86709500D01*
X139562565Y-86709500D01*
X139562559Y-86709500D01*
X139406642Y-86733002D01*
X139310542Y-86747487D01*
X139310538Y-86747488D01*
X139310539Y-86747488D01*
X139310533Y-86747489D01*
X139066992Y-86822612D01*
X138837373Y-86933190D01*
X138837372Y-86933191D01*
X138626782Y-87076768D01*
X138439952Y-87250121D01*
X138439950Y-87250123D01*
X138281043Y-87449385D01*
X138232042Y-87534257D01*
X138181474Y-87582472D01*
X138112867Y-87595694D01*
X138048003Y-87569726D01*
X138025701Y-87546983D01*
X137980979Y-87487761D01*
X137816562Y-87337876D01*
X137816560Y-87337874D01*
X137627404Y-87220754D01*
X137627398Y-87220752D01*
X137419940Y-87140382D01*
X137201243Y-87099500D01*
X136978757Y-87099500D01*
X136760060Y-87140382D01*
X136661424Y-87178594D01*
X136552601Y-87220752D01*
X136552595Y-87220754D01*
X136363439Y-87337874D01*
X136363437Y-87337876D01*
X136199020Y-87487761D01*
X136064943Y-87665308D01*
X136064938Y-87665316D01*
X135965775Y-87864461D01*
X135965769Y-87864476D01*
X135904885Y-88078462D01*
X135904884Y-88078464D01*
X135884357Y-88299999D01*
X135884357Y-88300000D01*
X135904884Y-88521535D01*
X135904885Y-88521537D01*
X135965769Y-88735523D01*
X135965775Y-88735538D01*
X136012327Y-88829025D01*
X136024588Y-88897810D01*
X135997715Y-88962305D01*
X135940240Y-89002033D01*
X135901286Y-89008297D01*
X133199079Y-89007397D01*
X133132046Y-88987690D01*
X133086308Y-88934871D01*
X133076388Y-88865709D01*
X133088121Y-88828124D01*
X133097659Y-88808971D01*
X133134229Y-88735528D01*
X133195115Y-88521536D01*
X133215643Y-88300000D01*
X133195115Y-88078464D01*
X133134229Y-87864472D01*
X133109389Y-87814586D01*
X133035061Y-87665316D01*
X133035056Y-87665308D01*
X132900979Y-87487761D01*
X132736562Y-87337876D01*
X132736560Y-87337874D01*
X132547404Y-87220754D01*
X132547398Y-87220752D01*
X132339940Y-87140382D01*
X132121243Y-87099500D01*
X131898757Y-87099500D01*
X131680060Y-87140382D01*
X131581424Y-87178594D01*
X131472601Y-87220752D01*
X131472595Y-87220754D01*
X131283439Y-87337874D01*
X131283437Y-87337876D01*
X131119019Y-87487762D01*
X131119018Y-87487764D01*
X131115369Y-87492596D01*
X131059257Y-87534227D01*
X130989544Y-87538913D01*
X130932883Y-87509498D01*
X130914342Y-87492596D01*
X130766562Y-87357876D01*
X130766560Y-87357874D01*
X130577404Y-87240754D01*
X130577398Y-87240752D01*
X130369940Y-87160382D01*
X130151243Y-87119500D01*
X129928757Y-87119500D01*
X129710060Y-87160382D01*
X129578864Y-87211207D01*
X129502601Y-87240752D01*
X129502595Y-87240754D01*
X129313439Y-87357874D01*
X129313437Y-87357876D01*
X129149020Y-87507761D01*
X129014943Y-87685308D01*
X129014938Y-87685316D01*
X128915775Y-87884461D01*
X128915769Y-87884476D01*
X128854885Y-88098462D01*
X128854884Y-88098464D01*
X128834357Y-88319999D01*
X128834357Y-88320000D01*
X128854884Y-88541535D01*
X128854885Y-88541537D01*
X128915769Y-88755523D01*
X128915775Y-88755538D01*
X128951197Y-88826673D01*
X128963458Y-88895458D01*
X128936585Y-88959953D01*
X128879110Y-88999681D01*
X128840156Y-89005945D01*
X126160206Y-89005053D01*
X126093173Y-88985346D01*
X126047435Y-88932527D01*
X126037515Y-88863365D01*
X126049247Y-88825781D01*
X126084224Y-88755538D01*
X126084223Y-88755538D01*
X126084229Y-88755528D01*
X126145115Y-88541536D01*
X126165643Y-88320000D01*
X126145115Y-88098464D01*
X126084229Y-87884472D01*
X126084224Y-87884461D01*
X125985061Y-87685316D01*
X125985056Y-87685308D01*
X125850979Y-87507761D01*
X125686562Y-87357876D01*
X125686560Y-87357874D01*
X125497404Y-87240754D01*
X125497398Y-87240752D01*
X125289940Y-87160382D01*
X125071243Y-87119500D01*
X124848757Y-87119500D01*
X124630060Y-87160382D01*
X124498864Y-87211207D01*
X124422601Y-87240752D01*
X124422595Y-87240754D01*
X124233439Y-87357874D01*
X124233437Y-87357876D01*
X124069020Y-87507761D01*
X123934943Y-87685308D01*
X123934938Y-87685316D01*
X123835775Y-87884461D01*
X123835769Y-87884476D01*
X123774885Y-88098462D01*
X123774884Y-88098464D01*
X123754357Y-88319999D01*
X123754357Y-88320000D01*
X123774884Y-88541535D01*
X123774885Y-88541537D01*
X123835769Y-88755523D01*
X123835775Y-88755538D01*
X123870354Y-88824981D01*
X123882615Y-88893767D01*
X123855742Y-88958262D01*
X123798266Y-88997989D01*
X123759313Y-89004253D01*
X123288751Y-89004096D01*
X123221718Y-88984389D01*
X123175980Y-88931570D01*
X123166060Y-88862408D01*
X123187216Y-88808975D01*
X123244035Y-88727830D01*
X123343903Y-88513663D01*
X123405063Y-88285408D01*
X123425659Y-88050000D01*
X123405063Y-87814592D01*
X123343903Y-87586337D01*
X123244035Y-87372171D01*
X123238424Y-87364158D01*
X123108496Y-87178600D01*
X123049396Y-87119500D01*
X122986567Y-87056671D01*
X122953084Y-86995351D01*
X122958068Y-86925659D01*
X122999939Y-86869725D01*
X123030915Y-86852810D01*
X123162331Y-86803796D01*
X123277546Y-86717546D01*
X123363796Y-86602331D01*
X123414091Y-86467483D01*
X123420500Y-86407873D01*
X123420499Y-84880000D01*
X127669464Y-84880000D01*
X127689564Y-85096918D01*
X127689564Y-85096920D01*
X127689565Y-85096923D01*
X127749183Y-85306459D01*
X127846288Y-85501472D01*
X127977573Y-85675322D01*
X128138568Y-85822088D01*
X128138575Y-85822092D01*
X128138576Y-85822093D01*
X128323786Y-85936770D01*
X128323792Y-85936773D01*
X128346664Y-85945633D01*
X128526931Y-86015470D01*
X128741074Y-86055500D01*
X128741076Y-86055500D01*
X128958924Y-86055500D01*
X128958926Y-86055500D01*
X129173069Y-86015470D01*
X129376210Y-85936772D01*
X129561432Y-85822088D01*
X129722427Y-85675322D01*
X129751047Y-85637422D01*
X129807153Y-85595787D01*
X129876865Y-85591094D01*
X129938048Y-85624836D01*
X129948946Y-85637414D01*
X129977573Y-85675322D01*
X130138568Y-85822088D01*
X130138575Y-85822092D01*
X130138576Y-85822093D01*
X130323786Y-85936770D01*
X130323792Y-85936773D01*
X130346664Y-85945633D01*
X130526931Y-86015470D01*
X130741074Y-86055500D01*
X130741076Y-86055500D01*
X130958924Y-86055500D01*
X130958926Y-86055500D01*
X131173069Y-86015470D01*
X131376210Y-85936772D01*
X131561432Y-85822088D01*
X131722427Y-85675322D01*
X131751047Y-85637422D01*
X131807153Y-85595787D01*
X131876865Y-85591094D01*
X131938048Y-85624836D01*
X131948946Y-85637414D01*
X131977573Y-85675322D01*
X132138568Y-85822088D01*
X132138575Y-85822092D01*
X132138576Y-85822093D01*
X132323786Y-85936770D01*
X132323792Y-85936773D01*
X132346664Y-85945633D01*
X132526931Y-86015470D01*
X132741074Y-86055500D01*
X132741076Y-86055500D01*
X132958924Y-86055500D01*
X132958926Y-86055500D01*
X133173069Y-86015470D01*
X133376210Y-85936772D01*
X133561432Y-85822088D01*
X133722427Y-85675322D01*
X133853712Y-85501472D01*
X133950817Y-85306459D01*
X134010435Y-85096923D01*
X134030536Y-84880000D01*
X134010435Y-84663077D01*
X133950817Y-84453541D01*
X133853712Y-84258528D01*
X133853711Y-84258527D01*
X133853710Y-84258524D01*
X133806193Y-84195601D01*
X133781501Y-84130240D01*
X133796066Y-84061905D01*
X133845264Y-84012293D01*
X133913474Y-83997155D01*
X133948479Y-84004692D01*
X134067516Y-84049090D01*
X134067517Y-84049091D01*
X134067516Y-84049091D01*
X134074444Y-84049835D01*
X134127127Y-84055500D01*
X135572872Y-84055499D01*
X135632483Y-84049091D01*
X135767331Y-83998796D01*
X135882546Y-83912546D01*
X135968796Y-83797331D01*
X136019091Y-83662483D01*
X136025500Y-83602873D01*
X136025499Y-82157128D01*
X136019091Y-82097517D01*
X136014302Y-82084678D01*
X135968797Y-81962671D01*
X135968793Y-81962664D01*
X135882547Y-81847455D01*
X135882544Y-81847452D01*
X135767335Y-81761206D01*
X135767328Y-81761202D01*
X135632482Y-81710908D01*
X135632483Y-81710908D01*
X135572883Y-81704501D01*
X135572881Y-81704500D01*
X135572873Y-81704500D01*
X135572864Y-81704500D01*
X134127129Y-81704500D01*
X134127123Y-81704501D01*
X134067516Y-81710908D01*
X133932671Y-81761202D01*
X133932664Y-81761206D01*
X133817455Y-81847452D01*
X133755214Y-81930594D01*
X133699279Y-81972465D01*
X133629588Y-81977448D01*
X133572411Y-81947920D01*
X133561434Y-81937913D01*
X133561429Y-81937910D01*
X133376213Y-81823229D01*
X133376207Y-81823226D01*
X133291112Y-81790260D01*
X133173069Y-81744530D01*
X132958926Y-81704500D01*
X132741074Y-81704500D01*
X132526931Y-81744530D01*
X132483896Y-81761202D01*
X132323792Y-81823226D01*
X132323786Y-81823229D01*
X132138576Y-81937906D01*
X132138566Y-81937913D01*
X131977573Y-82084676D01*
X131948953Y-82122576D01*
X131892844Y-82164211D01*
X131823132Y-82168902D01*
X131761950Y-82135159D01*
X131751047Y-82122576D01*
X131722426Y-82084676D01*
X131561433Y-81937913D01*
X131561423Y-81937906D01*
X131376213Y-81823229D01*
X131376207Y-81823226D01*
X131291112Y-81790260D01*
X131173069Y-81744530D01*
X130958926Y-81704500D01*
X130741074Y-81704500D01*
X130526931Y-81744530D01*
X130483896Y-81761202D01*
X130323792Y-81823226D01*
X130323786Y-81823229D01*
X130138576Y-81937906D01*
X130138566Y-81937913D01*
X129977573Y-82084676D01*
X129948953Y-82122576D01*
X129892844Y-82164211D01*
X129823132Y-82168902D01*
X129761950Y-82135159D01*
X129751047Y-82122576D01*
X129722426Y-82084676D01*
X129561433Y-81937913D01*
X129561423Y-81937906D01*
X129376213Y-81823229D01*
X129376207Y-81823226D01*
X129291112Y-81790260D01*
X129173069Y-81744530D01*
X128958926Y-81704500D01*
X128741074Y-81704500D01*
X128526931Y-81744530D01*
X128483896Y-81761202D01*
X128323792Y-81823226D01*
X128323786Y-81823229D01*
X128138576Y-81937906D01*
X128138566Y-81937913D01*
X127977574Y-82084676D01*
X127846288Y-82258527D01*
X127749184Y-82453537D01*
X127689564Y-82663081D01*
X127669464Y-82879999D01*
X127669464Y-82880000D01*
X127689564Y-83096918D01*
X127749184Y-83306462D01*
X127846288Y-83501472D01*
X127977574Y-83675324D01*
X128101572Y-83788363D01*
X128137854Y-83848074D01*
X128136093Y-83917922D01*
X128101572Y-83971637D01*
X127977574Y-84084675D01*
X127846288Y-84258527D01*
X127749184Y-84453537D01*
X127721999Y-84549083D01*
X127696531Y-84638596D01*
X127689564Y-84663081D01*
X127669464Y-84879999D01*
X127669464Y-84880000D01*
X123420499Y-84880000D01*
X123420499Y-84612128D01*
X123414091Y-84552517D01*
X123412810Y-84549083D01*
X123363797Y-84417671D01*
X123363793Y-84417664D01*
X123277547Y-84302455D01*
X123277544Y-84302452D01*
X123162335Y-84216206D01*
X123162328Y-84216202D01*
X123027482Y-84165908D01*
X123027483Y-84165908D01*
X122967883Y-84159501D01*
X122967881Y-84159500D01*
X122967873Y-84159500D01*
X122967864Y-84159500D01*
X121172129Y-84159500D01*
X121172123Y-84159501D01*
X121112516Y-84165908D01*
X120977671Y-84216202D01*
X120977664Y-84216206D01*
X120862455Y-84302452D01*
X120862452Y-84302455D01*
X120776206Y-84417664D01*
X120776203Y-84417669D01*
X120727189Y-84549083D01*
X120685317Y-84605016D01*
X120619853Y-84629433D01*
X120551580Y-84614581D01*
X120523326Y-84593430D01*
X120401402Y-84471506D01*
X120401395Y-84471501D01*
X120207834Y-84335967D01*
X120207830Y-84335965D01*
X120207828Y-84335964D01*
X119993663Y-84236097D01*
X119993659Y-84236096D01*
X119993655Y-84236094D01*
X119765413Y-84174938D01*
X119765403Y-84174936D01*
X119530001Y-84154341D01*
X119529999Y-84154341D01*
X119294596Y-84174936D01*
X119294586Y-84174938D01*
X119066344Y-84236094D01*
X119066335Y-84236098D01*
X118852171Y-84335964D01*
X118852169Y-84335965D01*
X118658597Y-84471505D01*
X118491508Y-84638594D01*
X118361574Y-84824160D01*
X118306997Y-84867784D01*
X118237498Y-84874977D01*
X118175144Y-84843455D01*
X118158429Y-84824164D01*
X118028495Y-84638599D01*
X118028493Y-84638596D01*
X117861402Y-84471506D01*
X117861395Y-84471501D01*
X117667834Y-84335967D01*
X117667830Y-84335965D01*
X117667828Y-84335964D01*
X117453663Y-84236097D01*
X117453659Y-84236096D01*
X117453655Y-84236094D01*
X117225413Y-84174938D01*
X117225403Y-84174936D01*
X116990001Y-84154341D01*
X116989999Y-84154341D01*
X116754596Y-84174936D01*
X116754586Y-84174938D01*
X116526344Y-84236094D01*
X116526335Y-84236098D01*
X116312171Y-84335964D01*
X116312169Y-84335965D01*
X116118597Y-84471505D01*
X115951505Y-84638597D01*
X115815965Y-84832169D01*
X115815964Y-84832171D01*
X115716098Y-85046335D01*
X115716094Y-85046344D01*
X115654938Y-85274586D01*
X115654936Y-85274596D01*
X115634341Y-85509999D01*
X115634341Y-85510000D01*
X115654936Y-85745403D01*
X115654938Y-85745413D01*
X115716094Y-85973655D01*
X115716096Y-85973659D01*
X115716097Y-85973663D01*
X115796004Y-86145023D01*
X115815965Y-86187830D01*
X115815967Y-86187834D01*
X115924281Y-86342521D01*
X115951501Y-86381396D01*
X115951506Y-86381402D01*
X116118597Y-86548493D01*
X116118603Y-86548498D01*
X116304158Y-86678425D01*
X116347783Y-86733002D01*
X116354977Y-86802500D01*
X116323454Y-86864855D01*
X116304158Y-86881575D01*
X116118597Y-87011505D01*
X115951505Y-87178597D01*
X115815965Y-87372169D01*
X115815964Y-87372171D01*
X115716098Y-87586335D01*
X115716094Y-87586344D01*
X115654938Y-87814586D01*
X115654936Y-87814596D01*
X115634341Y-88049999D01*
X115634341Y-88050000D01*
X115654936Y-88285403D01*
X115654938Y-88285413D01*
X115716094Y-88513655D01*
X115716096Y-88513659D01*
X115716097Y-88513663D01*
X115729095Y-88541537D01*
X115815964Y-88727829D01*
X115815965Y-88727830D01*
X115871028Y-88806469D01*
X115893355Y-88872673D01*
X115876345Y-88940441D01*
X115825397Y-88988254D01*
X115769412Y-89001591D01*
X113131120Y-89000713D01*
X113064087Y-88981006D01*
X113018349Y-88928187D01*
X113008429Y-88859025D01*
X113029586Y-88805590D01*
X113084035Y-88727830D01*
X113183903Y-88513663D01*
X113245063Y-88285408D01*
X113265659Y-88050000D01*
X113245063Y-87814592D01*
X113183903Y-87586337D01*
X113084035Y-87372171D01*
X113078425Y-87364158D01*
X112948494Y-87178597D01*
X112781402Y-87011506D01*
X112781396Y-87011501D01*
X112595842Y-86881575D01*
X112552217Y-86826998D01*
X112545023Y-86757500D01*
X112576546Y-86695145D01*
X112595842Y-86678425D01*
X112618026Y-86662891D01*
X112781401Y-86548495D01*
X112948495Y-86381401D01*
X113084035Y-86187830D01*
X113183903Y-85973663D01*
X113245063Y-85745408D01*
X113265659Y-85510000D01*
X113245063Y-85274592D01*
X113183903Y-85046337D01*
X113084035Y-84832171D01*
X112965638Y-84663081D01*
X112948494Y-84638597D01*
X112781402Y-84471506D01*
X112781395Y-84471501D01*
X112587834Y-84335967D01*
X112587830Y-84335965D01*
X112587828Y-84335964D01*
X112373663Y-84236097D01*
X112373659Y-84236096D01*
X112373655Y-84236094D01*
X112145413Y-84174938D01*
X112145403Y-84174936D01*
X111910001Y-84154341D01*
X111909999Y-84154341D01*
X111674596Y-84174936D01*
X111674586Y-84174938D01*
X111446344Y-84236094D01*
X111446335Y-84236098D01*
X111232171Y-84335964D01*
X111190386Y-84365222D01*
X111124179Y-84387549D01*
X111056412Y-84370537D01*
X111008600Y-84319588D01*
X110995265Y-84263515D01*
X111003598Y-76767870D01*
X132342151Y-76767870D01*
X132342152Y-76767876D01*
X132348559Y-76827483D01*
X132398853Y-76962328D01*
X132398857Y-76962335D01*
X132485103Y-77077544D01*
X132485106Y-77077547D01*
X132600315Y-77163793D01*
X132600322Y-77163797D01*
X132735168Y-77214091D01*
X132735167Y-77214091D01*
X132742095Y-77214835D01*
X132794778Y-77220500D01*
X134490523Y-77220499D01*
X134550134Y-77214091D01*
X134684982Y-77163796D01*
X134800197Y-77077546D01*
X134886447Y-76962331D01*
X134936742Y-76827483D01*
X134943151Y-76767873D01*
X134943150Y-75072128D01*
X134936742Y-75012517D01*
X134886447Y-74877669D01*
X134886446Y-74877668D01*
X134886444Y-74877664D01*
X134800198Y-74762455D01*
X134800195Y-74762452D01*
X134684986Y-74676206D01*
X134684979Y-74676202D01*
X134550133Y-74625908D01*
X134550134Y-74625908D01*
X134490534Y-74619501D01*
X134490532Y-74619500D01*
X134490524Y-74619500D01*
X134490515Y-74619500D01*
X132794780Y-74619500D01*
X132794774Y-74619501D01*
X132735167Y-74625908D01*
X132600322Y-74676202D01*
X132600315Y-74676206D01*
X132485106Y-74762452D01*
X132485103Y-74762455D01*
X132398857Y-74877664D01*
X132398853Y-74877671D01*
X132348559Y-75012517D01*
X132342152Y-75072116D01*
X132342152Y-75072123D01*
X132342151Y-75072135D01*
X132342151Y-76767870D01*
X111003598Y-76767870D01*
X111009862Y-71133860D01*
X111029621Y-71066845D01*
X111082476Y-71021148D01*
X111133862Y-71010000D01*
X140876069Y-71010000D01*
X140943108Y-71029685D01*
G37*
%TD.AperFunction*%
%TD*%
M02*
